<?xml version="1.0" encoding="UTF-8" standalone="no"?>
<svg
   xmlns:dc="http://purl.org/dc/elements/1.1/"
   xmlns:cc="http://creativecommons.org/ns#"
   xmlns:rdf="http://www.w3.org/1999/02/22-rdf-syntax-ns#"
   xmlns:svg="http://www.w3.org/2000/svg"
   xmlns="http://www.w3.org/2000/svg"
   id="svg767"
   version="1.1"
   viewBox="0 0 24.577763 24.578129"
   height="24.578129mm"
   width="24.577763mm">
  <defs
     id="defs761" />
  <metadata
     id="metadata764">
    <rdf:RDF>
      <cc:Work
         rdf:about="">
        <dc:format>image/svg+xml</dc:format>
        <dc:type
           rdf:resource="http://purl.org/dc/dcmitype/StillImage" />
        <dc:title></dc:title>
      </cc:Work>
    </rdf:RDF>
  </metadata>
  <g
     transform="translate(-27.776595,-86.651411)"
     id="layer1">
    <path
       id="path22"
       style="display:inline;fill:#cc5987;fill-opacity:1;fill-rule:nonzero;stroke:none;stroke-width:0.03527778"
       d="m 51.354357,98.940652 c 0,6.234998 -5.054071,11.288888 -11.288889,11.288888 -6.234782,0 -11.288873,-5.05389 -11.288873,-11.288888 0,-6.233935 5.054091,-11.289241 11.288873,-11.289241 6.234818,0 11.288889,5.055306 11.288889,11.289241" />
    <path
       id="path24"
       style="display:inline;fill:#ffffff;fill-opacity:1;fill-rule:nonzero;stroke:none;stroke-width:0.03527778"
       d="m 43.477076,96.746022 c 0,0.243417 -0.197026,0.439561 -0.439843,0.439561 h -0.706932 c -0.242817,0 -0.439878,-0.196144 -0.439878,-0.439561 v -0.705555 c 0,-0.243417 0.197061,-0.440973 0.439878,-0.440973 h 0.706932 c 0.242817,0 0.439843,0.197556 0.439843,0.440973 z m -0.01542,5.044018 c 0,0.30938 -0.251072,0.56021 -0.560176,0.56021 h -5.59992 c -0.309527,0 -0.560175,-0.25083 -0.560175,-0.56021 v -3.639963 h 0.765069 c -0.08266,0.259998 -0.127036,0.536928 -0.127036,0.824442 0,1.503541 1.218883,2.722031 2.722316,2.722031 1.503433,0 2.722315,-1.21849 2.722315,-2.722031 0,-0.287514 -0.04494,-0.564444 -0.127494,-0.824442 h 0.765105 z m -4.947422,-3.640315 c 0.03679,-0.07091 0.07839,-0.138995 0.123895,-0.203553 0.0015,-0.0018 0.002,-0.0035 0.0034,-0.0049 0.03323,-0.04657 0.06837,-0.09137 0.10541,-0.134408 0.0022,-0.0028 0.0048,-0.0056 0.0073,-0.0085 0.03584,-0.04092 0.07348,-0.08043 0.11303,-0.118181 0.0037,-0.0039 0.0078,-0.0074 0.01196,-0.01164 0.01214,-0.01094 0.02455,-0.02258 0.03722,-0.03351 0.0041,-0.0042 0.0094,-0.0081 0.01394,-0.01235 0.02205,-0.01905 0.04434,-0.0374 0.06668,-0.05503 0.0062,-0.0049 0.01256,-0.0099 0.01877,-0.01482 0.01171,-0.0088 0.02367,-0.01764 0.03567,-0.02611 0.008,-0.006 0.01626,-0.01199 0.02455,-0.01764 0.01475,-0.01058 0.0296,-0.02046 0.04434,-0.03034 0.01422,-0.0095 0.02826,-0.01834 0.04272,-0.02716 0.01076,-0.0067 0.02152,-0.01305 0.03238,-0.0194 0.01118,-0.0063 0.02205,-0.01305 0.03351,-0.01905 0.0103,-0.006 0.02064,-0.01164 0.03126,-0.01764 0.0193,-0.01023 0.0393,-0.02081 0.05941,-0.03034 0.0085,-0.0042 0.01707,-0.0081 0.02603,-0.01199 0.01447,-0.0071 0.02935,-0.01376 0.0441,-0.02011 0.0097,-0.0042 0.01859,-0.0081 0.0284,-0.01199 0.01845,-0.0074 0.03651,-0.01482 0.05496,-0.02187 0.0076,-0.0028 0.01517,-0.0056 0.02289,-0.0081 0.02067,-0.0074 0.04135,-0.01447 0.06227,-0.02117 0.0083,-0.0028 0.01697,-0.0053 0.02508,-0.0078 0.01901,-0.006 0.03806,-0.01129 0.05666,-0.01623 0.0065,-0.0018 0.01266,-0.0035 0.0193,-0.0053 0.02438,-0.006 0.04918,-0.01164 0.07426,-0.01693 0.0069,-0.0014 0.01422,-0.0028 0.02152,-0.0042 0.01983,-0.0039 0.03979,-0.0078 0.06047,-0.01094 0.0071,-0.0011 0.01394,-0.0021 0.02067,-0.0032 0.02621,-0.0039 0.05253,-0.0074 0.0787,-0.01023 0.0048,-3.44e-4 0.0095,-7.14e-4 0.01447,-0.0011 0.02275,-0.0025 0.04505,-0.0039 0.06738,-0.0053 0.0077,-3.44e-4 0.01531,-7.14e-4 0.0229,-0.0011 0.0267,-0.0014 0.05443,-0.0021 0.08198,-0.0021 0.02713,0 0.05443,7.15e-4 0.08184,0.0021 0.0077,3.44e-4 0.01489,7.15e-4 0.02205,0.0011 0.0229,0.0014 0.04547,0.0028 0.06752,0.0053 0.005,3.44e-4 0.01005,7.15e-4 0.01489,0.0011 0.0266,0.0028 0.05235,0.0063 0.07828,0.01023 0.0072,0.0011 0.01446,0.0021 0.0212,0.0032 0.02014,0.0032 0.04039,0.0071 0.06064,0.01094 0.0069,0.0014 0.01394,0.0028 0.02148,0.0042 0.02484,0.0053 0.04964,0.01093 0.07444,0.01693 0.0062,0.0018 0.01228,0.0035 0.01845,0.0053 0.0193,0.0049 0.03792,0.01023 0.05666,0.01623 0.0085,0.0025 0.01707,0.0049 0.02537,0.0078 0.02106,0.0067 0.04173,0.01376 0.06241,0.02117 0.0072,0.0025 0.01517,0.0053 0.02275,0.0081 0.01817,0.0071 0.03679,0.01447 0.05468,0.02187 0.0098,0.0039 0.0193,0.0078 0.02868,0.01199 0.01489,0.0063 0.02935,0.01305 0.04452,0.01976 0.0083,0.0042 0.01722,0.0081 0.02533,0.01235 0.02039,0.0095 0.03997,0.02011 0.05997,0.03034 0.01034,0.006 0.02064,0.01164 0.03097,0.01764 0.01146,0.006 0.0229,0.0127 0.03376,0.01905 0.01076,0.0063 0.02152,0.0127 0.03238,0.0194 0.01422,0.0088 0.02826,0.01764 0.04219,0.02716 0.01503,0.0099 0.03016,0.01976 0.04463,0.03034 0.0084,0.0056 0.01654,0.01164 0.02484,0.01764 0.01171,0.0085 0.02353,0.01729 0.03528,0.02611 0.006,0.0049 0.01224,0.0099 0.01859,0.01482 0.02258,0.01764 0.04505,0.03598 0.06668,0.05503 0.0048,0.0042 0.0098,0.0081 0.01464,0.01235 0.01224,0.01094 0.0248,0.02258 0.03679,0.03351 0.0041,0.0042 0.0078,0.0078 0.01196,0.01164 0.03944,0.03775 0.07733,0.07726 0.112994,0.118181 0.0029,0.0028 0.0048,0.0056 0.0076,0.0085 0.03736,0.04304 0.07235,0.08784 0.105163,0.134409 9.53e-4,0.0014 0.0023,0.0032 0.0034,0.0049 0.04576,0.06456 0.0871,0.132645 0.124037,0.203553 0.128587,0.246592 0.201612,0.527403 0.201612,0.824795 0,0.987777 -0.801052,1.788939 -1.788689,1.788939 -0.988201,0 -1.789111,-0.801162 -1.789111,-1.788939 0,-0.297392 0.07303,-0.578203 0.201612,-0.824795 z m 5.018404,-3.530953 h -6.862373 c -0.519113,0 -0.939659,0.419806 -0.939659,0.938389 v 6.863999 c 0,0.51929 0.420546,0.94015 0.939659,0.94015 h 6.862373 c 0.519113,0 0.940083,-0.42086 0.940083,-0.94015 v -6.863999 c 0,-0.518583 -0.42097,-0.938389 -0.940083,-0.938389" />
  </g>
</svg>
