<?xml version="1.0" encoding="UTF-8" standalone="no"?>
<svg
   xmlns:dc="http://purl.org/dc/elements/1.1/"
   xmlns:cc="http://creativecommons.org/ns#"
   xmlns:rdf="http://www.w3.org/1999/02/22-rdf-syntax-ns#"
   xmlns:svg="http://www.w3.org/2000/svg"
   xmlns="http://www.w3.org/2000/svg"
   viewBox="0 0 480 288"
   height="288"
   width="480"
   xml:space="preserve"
   id="svg2"
   version="1.1"><metadata
     id="metadata8"><rdf:RDF><cc:Work
         rdf:about=""><dc:format>image/svg+xml</dc:format><dc:type
           rdf:resource="http://purl.org/dc/dcmitype/StillImage" /><dc:title></dc:title></cc:Work></rdf:RDF></metadata><defs
     id="defs6"><clipPath
       id="clipPath20"
       clipPathUnits="userSpaceOnUse"><path
         style="clip-rule:evenodd"
         id="path18"
         d="M 0,0.566406 H 3598.61 V 2159.5064 H 0 Z" /></clipPath></defs><g
     transform="matrix(1.3333333,0,0,-1.3333333,0,288)"
     id="g10"><g
       transform="scale(0.1)"
       id="g12"><g
         id="g14"><g
           clip-path="url(#clipPath20)"
           id="g16"><path
             id="path22"
             style="fill:#0f0f0f;fill-opacity:1;fill-rule:evenodd;stroke:none"
             d="m 536.191,246.559 c 6.805,0 11.903,2.265 11.903,7.367 v 0.566 c 0,4.535 -3.965,7.371 -12.469,7.371 h -17.57 v -15.304 z m -3.964,27.773 c 6.8,0 11.902,2.266 11.902,7.367 v 0.567 c 0,4.535 -4.535,6.8 -10.77,6.8 h -15.304 v -14.734 z m -29.477,28.906 h 32.875 c 8.504,0 14.738,-2.265 18.707,-6.234 3.398,-2.836 5.098,-7.367 5.098,-12.469 0,-7.937 -4.532,-12.472 -9.067,-15.305 7.934,-2.835 13.035,-7.367 13.035,-17.003 0,-13.036 -10.769,-19.274 -27.207,-19.274 H 502.75 v 70.285" /><path
             id="path24"
             style="fill:#0f0f0f;fill-opacity:1;fill-rule:evenodd;stroke:none"
             d="m 641.051,262.43 -9.071,22.672 -9.632,-22.672 z m -15.871,41.375 h 14.172 l 30.039,-70.852 h -16.438 l -6.234,15.871 h -29.473 l -7.371,-15.871 h -15.867 l 31.172,70.852" /><path
             id="path26"
             style="fill:#0f0f0f;fill-opacity:1;fill-rule:evenodd;stroke:none"
             d="m 704.531,303.238 h 15.871 v -31.175 l 28.907,31.175 h 18.707 l -28.911,-30.039 30.043,-40.246 h -18.707 l -21.535,29.477 -8.504,-7.938 v -21.539 h -15.871 v 70.285" /><path
             id="path28"
             style="fill:#0f0f0f;fill-opacity:1;fill-rule:evenodd;stroke:none"
             d="m 803.156,303.238 h 16.438 v -70.285 h -16.438 v 70.285" /><path
             id="path30"
             style="fill:#0f0f0f;fill-opacity:1;fill-rule:evenodd;stroke:none"
             d="m 860.969,303.238 h 14.738 l 33.441,-43.644 v 43.644 h 15.301 v -70.285 h -13.035 l -35.141,44.211 v -44.211 h -15.304 v 70.285" /><path
             id="path32"
             style="fill:#0f0f0f;fill-opacity:1;fill-rule:evenodd;stroke:none"
             d="m 962.426,267.531 v 0.567 c 0,19.836 15.304,36.273 36.844,36.273 13.03,0 20.97,-3.398 28.34,-9.637 l -10.2,-11.902 c -5.11,4.535 -10.21,7.371 -18.707,7.371 -11.336,0 -20.406,-10.203 -20.406,-22.105 0,-13.039 9.07,-22.106 21.539,-22.106 6.234,0 11.334,1.133 15.304,3.965 v 10.203 h -16.437 v 13.039 h 31.177 v -30.043 c -7.37,-6.234 -17.01,-11.336 -30.61,-11.336 -22.106,0 -36.844,15.305 -36.844,35.711" /><path
             id="path34"
             style="fill:#0f0f0f;fill-opacity:1;fill-rule:evenodd;stroke:none"
             d="m 1145.5,247.125 c 13.04,0 21.54,7.934 21.54,20.406 v 0.567 c 0,11.902 -8.5,20.968 -21.54,20.968 h -11.9 v -41.941 z m -27.77,56.113 h 27.77 c 22.68,0 37.98,-15.304 37.98,-35.14 0,-19.84 -15.3,-35.145 -37.98,-35.145 h -27.77 v 70.285" /><path
             id="path36"
             style="fill:#0f0f0f;fill-opacity:1;fill-rule:evenodd;stroke:none"
             d="m 1221.45,303.238 h 53.28 v -14.172 h -37.97 v -14.168 h 33.44 v -13.601 h -33.44 v -14.738 h 38.54 v -13.606 h -53.85 v 70.285" /><path
             id="path38"
             style="fill:#0f0f0f;fill-opacity:1;fill-rule:evenodd;stroke:none"
             d="m 1313.28,303.238 h 16.43 v -56.113 h 35.15 v -14.172 h -51.58 v 70.285" /><path
             id="path40"
             style="fill:#0f0f0f;fill-opacity:1;fill-rule:evenodd;stroke:none"
             d="M 1401.13,303.238 H 1417 v -70.285 h -15.87 v 70.285" /><path
             id="path42"
             style="fill:#0f0f0f;fill-opacity:1;fill-rule:evenodd;stroke:none"
             d="m 1455.54,267.531 v 0.567 c 0,19.836 16.44,36.273 37.98,36.273 12.47,0 20.4,-3.398 27.2,-9.637 l -9.63,-11.902 c -5.1,4.535 -10.2,7.371 -18.14,7.371 -11.33,0 -20.4,-10.203 -20.4,-22.105 0,-13.039 9.07,-22.106 21.54,-22.106 5.66,0 10.77,1.133 14.16,3.965 v 10.203 h -15.3 v 13.039 h 30.61 v -30.043 c -7.37,-6.234 -17.01,-11.336 -30.04,-11.336 -22.67,0 -37.98,15.305 -37.98,35.711" /><path
             id="path44"
             style="fill:#0f0f0f;fill-opacity:1;fill-rule:evenodd;stroke:none"
             d="m 1562.67,303.238 h 15.3 v -28.34 h 28.91 v 28.34 h 15.87 v -70.285 h -15.87 v 27.774 h -28.91 v -27.774 h -15.3 v 70.285" /><path
             id="path46"
             style="fill:#0f0f0f;fill-opacity:1;fill-rule:evenodd;stroke:none"
             d="m 1680.56,288.5 h -22.1 v 14.738 h 58.94 V 288.5 h -20.97 v -55.547 h -15.87 V 288.5" /><path
             id="path48"
             style="fill:#0f0f0f;fill-opacity:1;fill-rule:evenodd;stroke:none"
             d="m 1741.21,271.496 h 31.74 v -14.734 h -31.74 v 14.734" /><path
             id="path50"
             style="fill:#0f0f0f;fill-opacity:1;fill-rule:evenodd;stroke:none"
             d="m 1810.36,303.238 h 54.41 V 288.5 h -39.11 v -14.734 h 34.58 V 260.16 h -34.58 v -27.207 h -15.3 v 70.285" /><path
             id="path52"
             style="fill:#0f0f0f;fill-opacity:1;fill-rule:evenodd;stroke:none"
             d="m 1901.61,303.238 h 16.44 v -70.285 h -16.44 v 70.285" /><path
             id="path54"
             style="fill:#0f0f0f;fill-opacity:1;fill-rule:evenodd;stroke:none"
             d="m 1959.43,303.238 h 15.87 v -56.113 h 35.71 v -14.172 h -51.58 v 70.285" /><path
             id="path56"
             style="fill:#0f0f0f;fill-opacity:1;fill-rule:evenodd;stroke:none"
             d="m 2046.71,303.238 h 15.31 v -56.113 h 35.71 v -14.172 h -51.02 v 70.285" /><path
             id="path58"
             style="fill:#0f0f0f;fill-opacity:1;fill-rule:evenodd;stroke:none"
             d="m 2133.43,303.238 h 53.85 v -14.172 h -37.98 v -14.168 h 33.45 v -13.601 h -33.45 v -14.738 h 38.55 v -13.606 h -54.42 v 70.285" /><path
             id="path60"
             style="fill:#0f0f0f;fill-opacity:1;fill-rule:evenodd;stroke:none"
             d="m 2253.6,247.125 c 13.03,0 21.54,7.934 21.54,20.406 v 0.567 c 0,11.902 -8.51,20.968 -21.54,20.968 h -12.47 v -41.941 z m -27.78,56.113 h 27.78 c 22.1,0 37.4,-15.304 37.4,-35.14 0,-19.84 -15.3,-35.145 -37.4,-35.145 h -27.78 v 70.285" /><path
             id="path62"
             style="fill:#0f0f0f;fill-opacity:1;fill-rule:evenodd;stroke:none"
             d="m 2373.76,303.238 h 17 l 19.28,-30.039 18.13,30.039 h 17.01 v -70.285 h -15.31 v 45.348 l -19.83,-29.477 h -0.57 l -20.41,29.477 v -45.348 h -15.3 v 70.285" /><path
             id="path64"
             style="fill:#0f0f0f;fill-opacity:1;fill-rule:evenodd;stroke:none"
             d="m 2485.98,303.238 h 53.85 v -14.172 h -37.97 v -14.168 h 33.44 v -13.601 h -33.44 v -14.738 h 38.54 v -13.606 h -54.42 v 70.285" /><path
             id="path66"
             style="fill:#0f0f0f;fill-opacity:1;fill-rule:evenodd;stroke:none"
             d="m 2578.38,303.238 h 16.43 l 19.27,-30.039 18.71,30.039 h 16.43 v -70.285 h -15.3 v 45.348 l -19.84,-29.477 h -0.56 l -19.84,29.477 v -45.348 h -15.3 v 70.285" /><path
             id="path68"
             style="fill:#0f0f0f;fill-opacity:1;fill-rule:evenodd;stroke:none"
             d="m 2746.14,267.531 v 0.567 c 0,11.902 -9.06,22.105 -21.53,22.105 -12.47,0 -20.97,-10.203 -20.97,-22.105 0,-11.903 8.5,-22.106 20.97,-22.106 12.47,0 21.53,9.633 21.53,21.539 z m -58.94,0 v 0.567 c 0,19.836 15.87,36.273 37.41,36.273 22.1,0 37.97,-16.437 37.97,-36.273 0,-19.84 -16.44,-36.278 -37.97,-36.278 -21.54,0 -37.41,15.871 -37.41,35.711" /><path
             id="path70"
             style="fill:#0f0f0f;fill-opacity:1;fill-rule:evenodd;stroke:none"
             d="m 2832.3,268.664 c 7.37,0 11.9,3.969 11.9,10.203 0,6.801 -4.53,10.199 -11.9,10.199 h -16.44 v -20.402 z m -31.74,34.574 h 32.87 c 9.07,0 15.87,-2.265 20.41,-6.8 3.96,-3.969 6.23,-10.204 6.23,-16.438 v -0.566 c 0,-11.336 -6.23,-18.137 -15.3,-21.539 l 17,-24.942 h -17.57 l -15.3,22.106 h -13.04 v -22.106 h -15.3 v 70.285" /><path
             id="path72"
             style="fill:#0f0f0f;fill-opacity:1;fill-rule:evenodd;stroke:none"
             d="m 2898.62,303.238 h 16.43 v -70.285 h -16.43 v 70.285" /><path
             id="path74"
             style="fill:#0f0f0f;fill-opacity:1;fill-rule:evenodd;stroke:none"
             d="m 2956.43,303.238 h 53.84 v -14.172 h -37.97 v -14.168 h 33.44 v -13.601 h -33.44 v -14.738 h 38.54 v -13.606 h -54.41 v 70.285" /><path
             id="path76"
             style="fill:#0f0f0f;fill-opacity:1;fill-rule:evenodd;stroke:none"
             d="m 3043.71,243.156 9.08,10.77 c 7.36,-5.102 13.6,-8.5 22.1,-8.5 6.24,0 10.2,2.832 10.2,6.801 0,3.968 -2.83,6.234 -14.73,9.07 -14.74,3.398 -23.81,7.367 -23.81,20.969 v 0.566 c 0,12.473 10.77,21.539 25.5,21.539 10.21,0 18.71,-3.969 26.08,-9.637 l -7.93,-11.336 c -6.24,3.969 -12.48,6.805 -18.71,6.805 -5.67,0 -9.07,-2.836 -9.07,-6.234 0,-4.535 3.4,-6.239 15.3,-9.071 14.17,-3.968 22.67,-9.07 22.67,-20.972 0,-14.168 -10.76,-22.106 -26.07,-22.106 -10.77,0 -22.1,3.969 -30.61,11.336" /><path
             id="path78"
             style="fill:#0f0f0f;fill-opacity:1;fill-rule:evenodd;stroke:none"
             d="m 917.648,1314.98 c 0,-43.65 -24.937,-74.82 -88.988,-117.33 12.473,-31.18 18.141,-51.58 18.141,-82.19 0,-209.714 -231.258,-427.933 -450.039,-427.933 -62.918,0 -104.86,16.438 -148.504,57.246 53.281,-31.171 92.39,-41.941 145.668,-41.941 213.117,0 438.703,217.652 438.703,423.398 0,29.48 -2.266,51.01 -13.602,86.72 58.946,28.34 92.953,73.69 92.953,125.26 0,1.14 0,6.81 -1.132,11.91 5.101,-15.87 6.8,-22.67 6.8,-35.14" /><path
             id="path80"
             style="fill:#0f0f0f;fill-opacity:1;fill-rule:evenodd;stroke:none"
             d="m 654.652,1183.48 -104.855,-17.57 c -122.996,-21.54 -187.043,-46.48 -240.324,-87.29 -56.114,-44.78 -86.153,-98.057 -86.153,-152.468 0,-80.488 65.746,-137.734 158.703,-137.734 77.653,0 163.805,46.48 226.153,121.297 48.179,56.113 75.387,132.065 75.387,202.915 0,24.37 -2.836,42.51 -9.637,73.68 z m -3.964,81.62 c -6.801,16.44 -14.739,38.54 -26.075,68.58 -25.504,68.02 -34.008,100.32 -34.008,142.84 0,165.5 150.204,312.3 318.543,312.3 96.922,0 155.872,-55.55 155.872,-146.8 0,-108.26 -73.688,-191.58 -169.477,-191.58 -64.047,0 -104.855,32.88 -104.855,87.29 0,66.31 51.578,128.66 103.722,128.66 26.074,0 43.645,-16.44 43.645,-41.94 0,-19.27 -9.637,-32.31 -27.207,-37.41 -1.7,14.17 -6.801,19.27 -16.438,19.27 -24.937,0 -50.445,-35.71 -50.445,-66.88 0,-23.24 17.57,-42.51 40.808,-42.51 58.95,0 122.997,78.78 122.997,150.2 0,56.11 -36.84,91.82 -94.09,91.26 -115.059,0.56 -217.649,-99.19 -217.649,-211.42 0,-44.78 6.801,-66.88 55.547,-160.97 16.438,-34.01 24.938,-50.45 37.406,-80.49 28.907,14.17 48.18,36.84 48.18,58.95 0,10.77 -4.535,19.27 -16.437,30.04 7.933,18.71 16.437,25.51 32.875,25.51 24.371,0 43.644,-20.41 43.644,-47.61 0,-44.78 -32.875,-85.59 -92.957,-116.76 5.102,-35.72 7.934,-53.29 7.934,-79.36 0,-112.79 -49.309,-219.348 -141.133,-304.938 C 586.637,770.848 489.715,728.34 393.926,728.34 c -137.731,0 -244.289,92.953 -244.289,214.25 0,78.79 46.476,163.24 120.16,216.52 62.914,43.64 126.965,61.21 270.363,71.98 58.949,5.67 82.188,8.5 119.028,12.47 l -8.5,21.54" /><path
             id="path82"
             style="fill:#0f0f0f;fill-opacity:1;fill-rule:evenodd;stroke:none"
             d="M 640.484,1139.27 C 498.219,1116.6 446.637,1105.83 398.461,1085.42 310.605,1045.75 262.996,984.531 262.996,909.715 c 0,-10.77 1.699,-19.274 3.965,-40.809 -13.602,23.239 -17.57,36.84 -17.57,57.246 0,66.883 47.613,128.098 128.097,166.068 36.844,17.57 73.117,29.48 127.532,40.24 34.574,6.81 88.988,14.74 133.765,21.54 l 15.301,2.84 2.836,-14.74 -16.438,-2.83" /><path
             id="path84"
             style="fill:#0f0f0f;fill-opacity:1;fill-rule:evenodd;stroke:none"
             d="m 914.816,1697.57 c -101.457,0 -183.644,-93.53 -183.644,-208.59 v -16.43 c -5.102,24.37 -6.801,35.14 -6.801,51.58 0,97.48 88.988,185.91 184.777,185.91 24.938,0 39.676,-5.67 54.977,-20.41 -20.402,6.8 -31.738,7.94 -49.309,7.94" /><path
             id="path86"
             style="fill:#0f0f0f;fill-opacity:1;fill-rule:evenodd;stroke:none"
             d="m 1099.02,1601.21 c 0,-95.79 -90.68,-192.71 -181.938,-192.71 -30.039,0 -52.144,10.77 -79.352,36.84 30.04,-16.44 46.477,-22.11 72.551,-22.11 96.919,0 177.409,94.66 177.409,205.19 0,6.8 0,17.57 -1.7,31.17 9.64,-23.24 13.03,-36.84 13.03,-58.38" /><path
             id="path88"
             style="fill:#0f0f0f;fill-opacity:1;fill-rule:evenodd;stroke:none"
             d="m 870.605,1539.43 c 0,14.73 11.336,30.04 22.106,30.04 4.535,0 6.801,-1.13 11.336,-3.97 -18.137,-15.3 -22.106,-22.1 -27.207,-41.37 -5.102,5.66 -6.235,9.63 -6.235,15.3" /><path
             id="path90"
             style="fill:#0f0f0f;fill-opacity:1;fill-rule:evenodd;stroke:none"
             d="m 962.426,1592.14 c 0,-14.73 -10.77,-28.34 -24.371,-28.34 -6.801,0 -10.77,2.84 -19.84,7.94 1.703,0 2.836,0 3.969,0 22.671,0 30.605,12.47 33.441,47.04 5.668,-14.17 6.801,-19.84 6.801,-26.64" /><path
             id="path92"
             style="fill:#0f0f0f;fill-opacity:1;fill-rule:evenodd;stroke:none"
             d="m 1037.24,875.707 c -28.9,0 -43.638,7.934 -61.779,31.172 19.273,-13.602 35.709,-19.27 56.109,-18.703 53.85,0 104.3,37.976 151.91,112.224 v -26.072 c -41.94,-63.48 -94.09,-98.621 -146.24,-98.621" /><path
             id="path94"
             style="fill:#0f0f0f;fill-opacity:1;fill-rule:evenodd;stroke:none"
             d="m 1322.91,1396.59 c -73.68,0 -144.53,-47.61 -200.64,-138.86 -42.52,-69.72 -81.06,-182.51 -81.06,-239.19 0,-6.8 1.13,-11.9 2.84,-17.57 1.13,-3.97 2.83,-7.935 2.83,-10.771 0,-2.832 -2.83,-5.668 -5.67,-5.668 -7.93,0 -15.3,15.305 -15.3,36.849 0,66.31 44.21,184.77 93.52,257.89 56.11,83.32 130.93,130.93 202.35,130.93 16.43,0 27.2,-1.13 48.74,-7.94 l -7.93,-10.76 c -17.57,3.96 -27.21,5.09 -39.68,5.09" /><path
             id="path96"
             style="fill:#0f0f0f;fill-opacity:1;fill-rule:evenodd;stroke:none"
             d="m 1303.07,876.84 c -18.7,0 -31.17,6.801 -48.74,26.074 17.57,-12.473 28.34,-16.437 41.94,-16.437 37.41,0 77.09,34.007 138.87,116.753 l 7.93,-15.296 c -64.05,-83.887 -99.75,-111.094 -140,-111.094" /><path
             id="path98"
             style="fill:#0f0f0f;fill-opacity:1;fill-rule:evenodd;stroke:none"
             d="m 1497.48,1341.05 c 0,-27.21 -23.23,-50.44 -57.24,-58.95 -14.74,-27.21 -23.24,-43.64 -46.48,-92.39 l -37.97,-81.05 c -26.08,-54.41 -47.61,-108.824 -47.61,-124.129 0,-6.801 -1.71,-10.769 -5.67,-10.769 -4.54,0 -7.37,5.668 -7.37,13.605 0,21.533 18.14,66.883 60.65,154.173 l 34,69.71 c 24.38,50.45 30.05,61.21 40.81,83.32 35.71,6.8 56.11,28.34 62.92,66.88 2.83,-9.63 3.96,-15.3 3.96,-20.4" /><path
             id="path100"
             style="fill:#0f0f0f;fill-opacity:1;fill-rule:evenodd;stroke:none"
             d="m 1977.57,875.707 c -28.34,0 -43.65,7.934 -61.22,31.172 19.27,-13.602 35.14,-18.703 56.11,-19.27 53.28,0 103.73,38.543 151.91,112.791 v -26.072 c -42.51,-63.48 -94.66,-98.621 -146.8,-98.621" /><path
             id="path102"
             style="fill:#0f0f0f;fill-opacity:1;fill-rule:evenodd;stroke:none"
             d="m 2263.8,1396.59 c -74.25,0 -145.1,-47.61 -201.21,-138.86 -42.52,-69.72 -81.06,-182.51 -81.06,-239.19 0,-6.8 1.7,-11.9 2.84,-17.57 1.7,-3.97 2.83,-7.935 2.83,-10.771 0,-2.832 -2.83,-5.668 -5.67,-5.668 -7.93,0 -14.73,15.305 -14.73,36.849 0,65.74 43.64,184.77 92.95,257.89 56.11,83.32 131.5,130.93 202.35,130.93 16.44,0 27.2,-1.13 49.31,-7.94 l -8.5,-10.76 c -17.57,3.96 -27.21,5.09 -39.11,5.09" /><path
             id="path104"
             style="fill:#0f0f0f;fill-opacity:1;fill-rule:evenodd;stroke:none"
             d="m 2243.96,876.84 c -19.27,0 -31.74,6.801 -49.31,26.074 17.57,-12.473 28.9,-16.437 42.51,-16.437 37.41,0 77.09,34.007 138.3,116.193 l 8.5,-14.736 c -64.61,-83.887 -99.76,-111.094 -140,-111.094" /><path
             id="path106"
             style="fill:#0f0f0f;fill-opacity:1;fill-rule:evenodd;stroke:none"
             d="m 2438.38,1341.05 c 0,-27.21 -23.24,-50.44 -57.25,-58.95 -15.31,-27.21 -23.24,-43.64 -46.48,-92.39 l -39.11,-81.05 c -25.5,-54.41 -47.61,-108.824 -47.61,-124.129 0,-6.801 -1.13,-10.769 -5.67,-10.769 -3.97,0 -6.8,5.668 -6.8,13.605 0,22.103 18.14,66.883 60.08,154.173 l 35.14,69.71 c 24.37,50.45 30.04,61.21 40.81,83.32 35.14,6.8 56.12,28.34 62.92,66.88 2.26,-9.63 3.97,-15.3 3.97,-20.4" /><path
             id="path108"
             style="fill:#0f0f0f;fill-opacity:1;fill-rule:evenodd;stroke:none"
             d="m 1505.99,888.176 c -24.37,-0.567 -28.91,-2.836 -35.71,-26.074 l -8.5,13.605 c 8.5,23.238 15.3,28.906 47.04,28.906 h 102.02 l 3.97,15.305 c 34.58,100.892 74.25,197.242 117.9,283.402 36.84,73.68 62.34,115.63 91.25,148.5 l 6.81,-10.77 c -64.06,-79.35 -147.38,-256.19 -203.49,-430.769 l -6.8,-22.105 h -114.49" /><path
             id="path110"
             style="fill:#0f0f0f;fill-opacity:1;fill-rule:evenodd;stroke:none"
             d="m 1954.89,1398.3 c 0,-38.55 -32.87,-75.96 -65.75,-75.96 -6.8,0 -12.46,1.71 -22.1,5.67 49.88,3.97 82.75,38.54 82.75,85.02 v 13.61 c 3.97,-14.74 5.1,-21.54 5.1,-28.34" /><path
             id="path112"
             style="fill:#0f0f0f;fill-opacity:1;fill-rule:evenodd;stroke:none"
             d="m 2477.48,888.176 c -28.91,0 -39.67,-4.535 -50.44,-24.938 l -6.81,13.602 c 17.58,23.238 24.38,26.074 57.25,27.207 h 99.76 c 39.11,122.993 82.75,223.883 143.4,333.843 44.21,80.49 99.76,157.57 113.36,157.57 2.84,0 6.8,-2.83 6.8,-6.8 0,-1.7 -1.13,-2.84 -2.26,-3.97 -78.22,-78.22 -198.95,-318.54 -249.4,-497.081 l -111.66,0.567" /><path
             id="path114"
             style="fill:#0f0f0f;fill-opacity:1;fill-rule:evenodd;stroke:none"
             d="m 2766.55,1454.98 -24.37,-24.94 c 43.64,99.75 74.25,178.54 104.29,278.86 l 6.8,21.54 8.5,-19.27 c -28.9,-96.92 -56.11,-173.44 -95.22,-256.19" /><path
             id="path116"
             style="fill:#0f0f0f;fill-opacity:1;fill-rule:evenodd;stroke:none"
             d="m 2813.59,872.871 c -20.4,0 -32.87,6.801 -52.14,27.207 20.97,-12.469 30.61,-14.738 47.04,-14.738 43.65,0 90.13,39.68 133.77,115.06 l 11.9,-18.134 c -50.45,-76.52 -92.39,-109.395 -140.57,-109.395" /><path
             id="path118"
             style="fill:#0f0f0f;fill-opacity:1;fill-rule:evenodd;stroke:none"
             d="m 2973.43,1329.71 c 0,-27.2 -5.66,-50.44 -17.57,-81.62 -9.63,-26.07 -26.07,-55.54 -71.41,-140 -27.21,-52.71 -37.98,-77.08 -49.32,-116.758 -1.7,-7.934 -5.67,-13.602 -8.5,-13.602 -3.97,0 -6.8,3.969 -6.8,9.637 0,5.668 2.83,17.573 8.5,35.703 9.64,27.21 20.97,51.58 56.12,117.33 35.7,66.89 51.01,95.79 61.78,121.3 10.77,28.91 19.27,64.05 19.27,87.28 0,12.47 -1.7,21.54 -4.54,42.52 9.64,-24.95 12.47,-38.55 12.47,-61.79" /><path
             id="path120"
             style="fill:#0f0f0f;fill-opacity:1;fill-rule:evenodd;stroke:none"
             d="m 3371.89,1072.39 c 0,-102.027 -107.69,-199.519 -222.75,-199.519 -35.71,0 -54.98,6.801 -80.48,31.742 30.04,-14.738 45.91,-19.273 74.81,-19.273 116.76,0 216.52,94.656 216.52,203.48 0,21.54 -1.7,34.01 -8.5,60.08 15.3,-31.74 20.4,-49.31 20.4,-76.51" /><path
             id="path122"
             style="fill:#0f0f0f;fill-opacity:1;fill-rule:evenodd;stroke:none"
             d="m 3148.01,1014.57 c 0,-19.269 -10.77,-32.871 -25.51,-32.871 -7.37,0 -11.9,1.699 -17,9.633 26.07,1.703 37.41,13.608 37.41,43.078 0,1.13 0,3.97 -1.7,7.93 5.67,-11.9 6.8,-17.57 6.8,-27.77" /><path
             id="path124"
             style="fill:#0f0f0f;fill-opacity:1;fill-rule:evenodd;stroke:none"
             d="m 3290.84,1402.26 c -27.21,0 -43.64,-15.87 -48.74,-45.91 -4.54,6.8 -4.54,11.34 -4.54,16.44 0,23.8 26.07,43.08 57.25,43.08 5.67,0 11.33,-1.7 19.84,-2.84 l -8.51,-13.6 c -6.8,1.13 -9.63,2.83 -15.3,2.83" /><path
             id="path126"
             style="fill:#0f0f0f;fill-opacity:1;fill-rule:evenodd;stroke:none"
             d="m 3450.11,1369.39 c 0,-31.18 -23.24,-56.11 -52.15,-56.11 -16.43,0 -26.63,6.8 -41.37,23.24 16.44,-9.64 23.8,-12.47 33.44,-12.47 30.04,0 54.42,27.77 54.42,60.64 0,5.1 -1.14,13.61 -2.84,22.67 6.8,-18.7 8.5,-27.2 8.5,-37.97" /><path
             id="path128"
             style="fill:#0f0f0f;fill-opacity:1;fill-rule:evenodd;stroke:none"
             d="m 3116.27,1669.23 c -12.47,-10.77 -20.41,-15.31 -30.04,-14.74 -15.31,-0.57 -26.08,11.9 -26.08,29.47 0,42.51 38.55,90.13 70.85,90.13 22.68,0 39.11,-19.28 39.11,-47.62 0,-53.27 -33.44,-102.59 -100.32,-149.06 l -14.74,24.37 c 31.18,19.27 47.61,37.41 61.22,67.45" /><path
             id="path130"
             style="fill:#0f0f0f;fill-opacity:1;fill-rule:evenodd;stroke:none"
             d="m 3196.18,1690.77 c 0,-46.48 -45.91,-108.27 -104.29,-140.57 l -8.5,10.77 c 62.92,32.87 103.16,88.42 103.16,146.23 0,5.67 -1.7,10.77 -2.84,20.41 9.64,-16.44 12.47,-24.38 12.47,-36.84" /><path
             id="path132"
             style="fill:#0f0f0f;fill-opacity:1;fill-rule:evenodd;stroke:none"
             d="m 1312.14,1324.61 c 50.45,0 62.92,1.14 84.45,9.64 -16.43,10.77 -20.4,15.87 -20.4,27.2 0,13.61 6.8,20.41 23.24,23.24 7.93,1.13 12.47,5.1 12.47,10.77 0,20.41 -43.65,41.95 -86.15,41.95 -84.46,0 -166.64,-51.59 -226.73,-142.84 -53.27,-81.05 -97.48,-206.31 -97.48,-274.33 0,-38.541 15.87,-60.08 41.37,-60.08 27.77,0 53.28,21.539 87.29,73.68 42.51,65.18 92.96,162.11 142.26,272.63 l 7.94,18.14 c 13.6,0 27.78,0 31.74,0 z m 103.73,-297.57 c -58.95,-86.153 -92.96,-116.192 -130.93,-116.192 -41.38,0 -75.39,43.644 -75.39,94.092 0,39.67 13.61,82.18 61.78,175.7 21.54,42.52 22.67,48.18 22.67,53.28 0,5.67 -2.26,8.51 -13.6,10.77 l -6.8,-13.6 c -53.28,-118.46 -80.49,-171.74 -110.53,-215.38 -47.61,-69.155 -92.39,-103.163 -140.56,-103.163 -64.619,0 -108.26,60.082 -108.26,148.503 0,223.89 183.64,412.06 401.86,412.06 87.29,0 153.03,-42.51 153.03,-99.75 0,-28.34 -22.1,-54.41 -46.47,-54.41 -1.13,0 -2.83,0 -6.8,1.69 l -8.51,-15.3 c -43.64,-87.85 -82.75,-169.47 -108.82,-229.55 -22.11,-50.45 -30.04,-75.954 -30.04,-92.392 0,-16.437 11.9,-31.742 27.2,-31.175 23.25,-0.567 51.59,31.175 100.89,111.657 l 19.28,-36.84" /><path
             id="path134"
             style="fill:#0f0f0f;fill-opacity:1;fill-rule:evenodd;stroke:none"
             d="m 2252.46,1324.61 c 50.45,0 62.92,1.14 85.02,9.64 -16.43,10.77 -20.97,15.87 -20.97,27.2 0,13.61 7.37,20.41 23.24,23.24 8.5,1.13 12.47,5.1 12.47,10.77 0,20.41 -43.64,41.95 -86.15,41.95 -84.46,0 -166.64,-51.59 -226.72,-142.84 -53.28,-81.05 -96.93,-206.31 -96.93,-274.33 0,-38.541 14.74,-60.08 40.81,-60.08 27.21,0 53.28,21.539 87.29,73.68 42.51,65.18 93.52,162.11 142.27,273.2 l 8.5,17.57 c 13.6,0 27.21,0 31.17,0 z m 103.73,-297.57 c -58.38,-86.153 -92.39,-116.192 -130.93,-116.192 -40.81,0 -74.82,43.644 -74.82,94.092 0,39.67 13.6,81.61 61.21,175.7 22.11,42.52 23.24,48.18 23.24,53.28 0,5.67 -2.83,8.51 -13.6,10.77 l -6.8,-13.6 c -53.28,-118.46 -80.49,-171.74 -111.1,-214.82 -48.17,-69.715 -92.95,-103.723 -140.56,-103.723 -64.05,0 -108.26,60.082 -108.26,148.503 0,223.89 183.07,412.06 402.43,412.06 87.29,0 152.47,-42.51 152.47,-99.75 0,-28.34 -21.54,-54.41 -46.48,-54.41 -1.13,0 -2.27,0 -6.8,1.69 l -7.94,-15.3 c -43.64,-87.85 -83.32,-169.47 -109.39,-229.55 -21.54,-50.45 -30.04,-75.954 -30.04,-92.392 0,-16.437 12.47,-31.742 27.21,-31.742 23.24,0.567 52.14,31.742 101.45,112.224 l 18.71,-36.84" /><path
             id="path136"
             style="fill:#0f0f0f;fill-opacity:1;fill-rule:evenodd;stroke:none"
             d="m 1466.31,994.168 c 17.57,44.782 42.51,104.852 62.92,152.472 l 40.81,98.05 c 35.71,85.02 42.51,105.43 42.51,121.86 0,27.21 -19.28,42.52 -54.98,42.52 -3.97,0 -10.77,0 -17.57,0 l 16.43,37.97 h 96.93 c 47.61,0 73.68,10.77 86.15,34.01 l 9.63,-7.94 c -12.46,-39.67 -23.23,-66.88 -46.47,-121.29 -31.74,-74.82 -52.15,-123 -95.79,-218.78 -17.57,-37.98 -27.21,-58.39 -34.01,-75.96 -5.67,-10.77 -5.67,-12.47 -5.67,-16.44 0,-3.96 3.97,-8.5 9.64,-8.5 2.83,0 6.8,1.7 10.77,1.7 l 5.66,14.74 c 16.44,35.71 51.59,114.49 73.69,158.14 87.29,179.1 160.97,266.39 226.72,266.39 21.54,0 36.84,-17.57 36.84,-42.51 0,-37.97 -31.17,-74.81 -65.75,-74.81 -11.9,0 -23.23,7.93 -23.23,19.27 0,2.83 1.69,5.1 1.69,7.93 1.14,2.83 1.14,5.67 1.14,5.67 0,5.1 -3.97,7.93 -9.64,7.93 -16.44,0 -41.94,-32.87 -83.32,-102.02 -55.54,-98.62 -104.86,-214.25 -155.3,-348.015 l -5.67,-16.438 h -81.62 c -36.84,0 -45.34,-3.965 -66.31,-27.203 l -9.64,2.832 c 13.6,37.977 19.27,53.281 33.44,88.422" /><path
             id="path138"
             style="fill:#0f0f0f;fill-opacity:1;fill-rule:evenodd;stroke:none"
             d="m 2447.44,1038.95 c 37.98,92.95 61.22,146.23 104.86,244.28 43.65,94.09 53.28,115.63 70.28,153.61 26.08,60.08 42.51,102.59 56.12,138.86 10.76,34.58 16.43,54.98 16.43,73.69 0,36.84 -16.43,48.18 -78.22,48.18 l 23.25,38.54 h 79.35 c 68.01,-2.84 90.12,2.83 104.85,27.21 l 8.51,-5.67 c -45.35,-155.87 -94.09,-286.8 -167.78,-439.27 l -46.47,-96.36 -43.08,-90.12 c -28.34,-58.95 -34.01,-73.69 -34.01,-81.62 0,-8.5 3.97,-13.6 10.77,-13.6 2.83,0 3.97,0 6.8,1.13 35.71,84.46 83.89,183.64 120.73,249.39 75.38,134.9 124.13,183.65 185.91,183.65 47.61,0 80.49,-36.85 80.49,-91.26 0,-44.78 -23.24,-111.66 -62.92,-187.61 l -36.84,-69.71 c -37.98,-69.72 -53.28,-108.83 -53.28,-138.872 0,-17.57 8.5,-28.906 20.4,-28.906 19.28,0 56.12,38.543 95.79,99.758 l 19.28,-31.74 c -58.95,-88.424 -88.99,-113.928 -129.8,-113.928 -52.15,0 -87.29,45.91 -87.29,112.798 0,50.44 22.67,114.49 71.98,198.94 l 46.48,77.65 c 23.24,37.98 34.01,68.02 34.01,90.12 0,20.41 -10.77,34.01 -24.37,34.01 -31.18,0 -94.09,-76.52 -153.04,-188.18 -43.64,-83.31 -98.62,-209.71 -130.36,-303.803 h -87.29 c -30.04,0 -40.81,-2.832 -62.35,-27.203 H 2397 c 13.6,43.641 24.37,74.816 50.44,136.036" /><path
             id="path140"
             style="fill:#0f0f0f;fill-opacity:1;fill-rule:evenodd;stroke:none"
             d="m 3072.62,1097.89 c 28.34,0 51.58,-22.1 51.58,-50.44 0,-17.57 -11.9,-32.88 -30.04,-35.71 l -10.77,-1.13 c -6.8,0 -12.47,-7.94 -12.47,-16.442 0,-21.539 30.04,-40.809 64.62,-40.809 58.94,0 111.09,55.541 111.09,118.461 0,19.27 -3.97,37.97 -15.3,61.22 -5.1,10.76 -7.94,15.3 -27.21,42.5 -9.64,11.91 -19.27,24.37 -28.91,37.98 -30.6,40.81 -44.21,75.38 -44.21,109.39 0,90.12 81.62,163.8 180.81,163.8 68.58,0 119.03,-35.7 119.03,-81.61 0,-30.04 -26.07,-52.15 -60.08,-52.15 -24.37,0 -42.51,13.6 -42.51,34.01 0,11.34 5.67,20.4 15.3,26.07 9.64,5.67 10.77,7.94 10.77,12.47 0,10.77 -17.57,18.71 -46.48,18.71 -54.41,0 -99.75,-32.31 -99.75,-73.12 0,-20.97 12.47,-41.38 57.25,-98.63 57.81,-71.41 75.38,-113.35 75.38,-167.77 0,-103.72 -92.95,-191.006 -201.22,-191.006 -77.64,0 -133.76,47.609 -133.76,113.356 0,37.98 31.17,70.85 66.88,70.85" /><path
             id="path142"
             style="fill:#0f0f0f;fill-opacity:1;fill-rule:evenodd;stroke:none"
             d="m 232.953,440.969 h 8.504 v -17.571 h -8.504 z m 33.442,0 h 8.503 v -17.571 h -8.503 z m 32.875,0 h 8.503 v -17.571 h -8.503 z m 33.441,0 h 8.504 v -17.571 h -8.504 z m 33.441,0 h 7.938 v -17.571 h -7.938 z m 32.875,0 h 8.5 v -17.571 h -8.5 z m 33.442,0 h 8.5 v -17.571 h -8.5 z m 34.008,0 h 7.933 v -17.571 h -7.933 z m 32.875,0 h 8.5 v -17.571 h -8.5 z m 33.441,0 h 8.5 v -17.571 h -8.5 z m 33.441,0 h 7.934 v -17.571 h -7.934 z m 32.875,0 h 8.5 v -17.571 h -8.5 z m 33.442,0 h 8.5 v -17.571 h -8.5 z m 33.437,0 h 7.938 v -17.571 h -7.938 z m 32.875,0 h 8.504 v -17.571 h -8.504 z m 33.442,0 h 8.504 v -17.571 h -8.504 z m 33.441,0 h 7.938 v -17.571 h -7.938 z m 32.875,0 h 8.504 v -17.571 h -8.504 z m 33.442,0 h 7.933 v -17.571 h -7.933 z m 32.875,0 h 8.5 v -17.571 h -8.5 z m 33.441,0 h 8.5 v -17.571 h -8.5 z m 33.441,0 h 7.934 v -17.571 h -7.934 z m 32.875,0 h 8.5 v -17.571 h -8.5 z m 33.442,0 h 8.503 v -17.571 h -8.503 z m 33.433,0 h 7.94 v -17.571 h -7.94 z m 32.88,0 h 8.5 v -17.571 h -8.5 z m 33.44,0 h 8.5 v -17.571 h -8.5 z m 33.44,0 h 7.94 v -17.571 h -7.94 z m 32.88,0 h 8.5 v -17.571 h -8.5 z m 33.44,0 h 8.5 v -17.571 h -8.5 z m 33.44,0 h 7.93 v -17.571 h -7.93 z m 32.87,0 h 8.5 v -17.571 h -8.5 z m 33.45,0 h 8.5 v -17.571 h -8.5 z m 33.44,0 h 7.93 v -17.571 h -7.93 z m 32.87,0 h 8.5 v -17.571 h -8.5 z m 33.44,0 h 7.94 v -17.571 h -7.94 z m 32.88,0 h 8.5 v -17.571 h -8.5 z m 33.44,0 h 8.5 v -17.571 h -8.5 z m 33.44,0 h 7.94 v -17.571 h -7.94 z m 32.87,0 h 8.51 v -17.571 h -8.51 z m 33.44,0 h 8.51 v -17.571 h -8.51 z m 33.45,0 h 7.93 v -17.571 h -7.93 z m 32.87,0 h 8.5 v -17.571 h -8.5 z m 33.44,0 h 8.5 v -17.571 h -8.5 z m 33.44,0 h 7.94 v -17.571 h -7.94 z m 32.88,0 h 8.5 v -17.571 h -8.5 z m 33.44,0 h 8.5 v -17.571 h -8.5 z m 33.44,0 h 7.94 v -17.571 h -7.94 z m 32.87,0 h 8.51 v -17.571 h -8.51 z m 33.44,0 h 8.51 v -17.571 h -8.51 z m 33.45,0 h 7.93 v -17.571 h -7.93 z m 32.87,0 h 8.5 v -17.571 h -8.5 z m 33.44,0 h 7.94 v -17.571 h -7.94 z m 32.88,0 h 8.5 v -17.571 h -8.5 z m 33.44,0 h 8.5 v -17.571 h -8.5 z m 33.44,0 h 7.93 v -17.571 h -7.93 z m 32.87,0 h 8.5 v -17.571 h -8.5 z m 33.45,0 h 8.5 v -17.571 h -8.5 z m 33.43,0 h 7.94 v -17.571 h -7.94 z m 32.88,0 h 8.5 v -17.571 h -8.5 z m 33.44,0 h 8.5 v -17.571 h -8.5 z m 33.44,0 h 7.94 v -17.571 h -7.94 z m 32.88,0 h 8.5 v -17.571 h -8.5 z m 33.44,0 h 8.5 v -17.571 h -8.5 z m 33.44,0 h 7.93 v -17.571 h -7.93 z m 32.87,0 h 8.5 v -17.571 h -8.5 z m 33.45,0 h 8.5 v -17.571 h -8.5 z m 32.87,0 h 8.5 v -17.571 h -8.5 z m 33.44,0 h 8.5 v -17.571 h -8.5 z m 33.44,0 h 7.94 v -17.571 h -7.94 z m 32.87,0 h 8.51 v -17.571 h -8.51 z m 33.45,0 h 8.5 v -17.571 h -8.5 z m 33.44,0 h 7.93 v -17.571 h -7.93 z m 32.87,0 h 8.51 v -17.571 h -8.51 z m 33.44,0 h 8.51 v -17.571 h -8.51 z m 33.45,0 h 7.93 v -17.571 h -7.93 z m 32.87,0 h 8.5 v -17.571 h -8.5 z m 33.44,0 h 8.5 v -17.571 h -8.5 z m 33.44,0 h 7.94 v -17.571 h -7.94 z m 32.88,0 h 8.5 v -17.571 h -8.5 z m 33.44,0 h 8.5 v -17.571 h -8.5 z m 33.44,0 h 7.93 v -17.571 h -7.93 z m 32.87,0 h 8.51 v -17.571 h -8.51 z m 33.44,0 h 8.51 v -17.571 h -8.51 z m 33.44,0 h 7.94 v -17.571 h -7.94 z m 32.88,0 h 8.5 v -17.571 h -8.5 z m 33.44,0 h 7.93 v -17.571 h -7.93 z m 32.88,0 h 8.5 v -17.571 h -8.5 z m 33.44,0 h 8.5 v -17.571 h -8.5 z m 33.44,0 h 7.93 v -17.571 h -7.93 z m 32.87,0 h 8.5 v -17.571 h -8.5 z m 33.45,0 h 8.5 v -17.571 h -8.5 z m 33.43,0 h 7.94 v -17.571 h -7.94 z m 32.88,0 h 8.5 v -17.571 h -8.5 z m 33.44,0 h 8.5 v -17.571 h -8.5 v 17.571" /><path
             id="path144"
             style="fill:#0f0f0f;fill-opacity:1;fill-rule:evenodd;stroke:none"
             d="m 2493.92,722.102 h 8.5 v 17.003 h -8.5 z m -33.44,0 h 8.5 v 17.003 h -8.5 z m 66.88,0 h 7.94 v 17.003 h -7.94 z m -99.75,0 h 8.5 v 17.003 h -8.5 z m -33.45,0 h 8.5 v 17.003 h -8.5 z m 265.83,0 h 8.51 v 17.003 h -8.51 z m -66.31,0 h 8.5 v 17.003 h -8.5 z m 33.44,0 h 7.93 v 17.003 h -7.93 z m -66.89,0 h 8.51 v 17.003 h -8.51 z m -232.95,0 h 8.5 v 17.003 h -8.5 z m -166.07,0 h 7.93 v 17.003 h -7.93 z m 32.87,0 h 8.51 v 17.003 h -8.51 z m -66.31,0 h 8.5 v 17.003 h -8.5 z m -33.45,0 h 8.51 v 17.003 h -8.51 z m 166.64,0 h 7.94 v 17.003 h -7.94 z m 432.47,0 h 8.51 v 17.003 h -8.51 z m -465.91,0 h 8.51 v 17.003 h -8.51 z m -166.07,0 h 7.94 v 17.003 h -7.94 z m 299.84,0 h 7.93 v 17.003 h -7.93 z m -67.45,0 h 8.5 v 17.003 h -8.5 z m 898.38,0 h 7.93 v 17.003 h -7.93 z m 32.87,0 h 8.5 v 17.003 h -8.5 z m -99.75,0 h 8.5 v 17.003 h -8.5 z m 33.44,0 h 8.5 v 17.003 h -8.5 z m 133.19,0 h 7.94 v 17.003 h -7.94 z m -33.43,0 h 8.5 v 17.003 h -8.5 z m 99.75,0 h 8.5 v 17.003 h -8.5 z m -33.44,0 h 8.5 v 17.003 h -8.5 z m -232.39,0 h 7.93 v 17.003 h -7.93 z m -232.95,0 h 8.5 v 17.003 h -8.5 z m -99.76,0 h 8.5 v 17.003 h -8.5 z m 66.88,0 h 7.94 v 17.003 h -7.94 z m -33.44,0 h 8.5 v 17.003 h -8.5 z m 99.76,0 h 8.5 v 17.003 h -8.5 z m 66.31,0 h 8.51 v 17.003 h -8.51 z m -32.87,0 h 7.93 v 17.003 h -7.93 z m 99.75,0 h 7.94 v 17.003 h -7.94 z m 32.88,0 h 8.5 v 17.003 h -8.5 z m -66.32,0 h 8.51 v 17.003 h -8.51 z m -265.82,0 h 7.93 v 17.003 h -7.93 z m -1596.11,0 h 7.93 v 17.003 h -7.93 z m -66.89,0 h 8.51 v 17.003 h -8.51 z m 99.76,0 h 8.5 v 17.003 h -8.5 z m -66.32,0 h 8.51 v 17.003 h -8.51 z m 166.08,0 h 8.5 v 17.003 h -8.5 z m 33.44,0 h 8.5 v 17.003 h -8.5 z m -66.32,0 h 7.94 v 17.003 h -7.94 z m -199.51,0 h 7.94 v 17.003 h -7.94 z m 166.07,0 h 8.5 v 17.003 h -8.5 z m -465.342,0 h 8.504 v 17.003 h -8.504 z m 99.758,0 h 7.934 v 17.003 h -7.934 z m -33.441,0 h 8.5 v 17.003 h -8.5 z m 532.225,0 h 7.93 v 17.003 h -7.93 z m -565.1,0 h 7.933 v 17.003 h -7.933 z m 166.074,0 h 7.934 v 17.003 h -7.934 z m -66.883,0 h 8.5 v 17.003 h -8.5 z m 99.754,0 h 8.504 v 17.003 h -8.504 z m -66.312,0 h 8.5 v 17.003 h -8.5 z m 99.753,0 h 8.504 v 17.003 h -8.504 z m 997.004,0 h 8.5 v 17.003 h -8.5 z m -198.95,0 h 7.94 v 17.003 h -7.94 z m 32.88,0 h 8.5 v 17.003 h -8.5 z m -99.76,0 h 8.5 v 17.003 h -8.5 z m 33.44,0 h 8.5 v 17.003 h -8.5 z m 133.2,0 h 7.94 v 17.003 h -7.94 z m -532.23,0 h 8.51 v 17.003 h -8.51 z m 598.55,0 h 7.93 v 17.003 h -7.93 z m -265.83,0 h 7.93 v 17.003 h -7.93 z m 232.38,0 h 8.5 v 17.003 h -8.5 z m -66.31,0 h 8.5 v 17.003 h -8.5 z m 166.07,0 h 8.5 v 17.003 h -8.5 z m -565.1,0 h 8.5 v 17.003 h -8.5 z m 33.44,0 h 7.94 v 17.003 h -7.94 z m 166.08,0 h 8.5 v 17.003 h -8.5 z m -265.84,0 h 7.94 v 17.003 h -7.94 z m 32.88,0 h 8.5 v 17.003 h -8.5 z m 199.51,0 h 8.5 v 17.003 h -8.5 z m -66.31,0 h 8.5 v 17.003 h -8.5 z m 33.44,0 h 7.93 v 17.003 h -7.93 z m -66.88,0 h 8.5 v 17.003 h -8.5 v -17.003" /><path
             id="path146"
             style="fill:#0f0f0f;fill-opacity:1;fill-rule:evenodd;stroke:none"
             d="m 846.234,563.965 3.399,-1.133 c -2.266,-5.668 -4.535,-10.769 -6.235,-14.168 -2.265,-3.402 -5.101,-6.805 -8.503,-10.203 -14.735,-16.438 -35.707,-24.941 -61.782,-24.941 -14.168,0 -27.769,2.835 -41.375,7.937 -13.601,5.102 -24.937,12.469 -34.574,21.539 -10.769,10.77 -15.871,22.672 -15.871,36.84 0,18.703 9.07,34.574 27.773,49.312 16.438,12.469 35.707,19.27 58.379,19.27 7.371,0 13.606,-1.133 19.84,-2.266 5.668,-1.699 12.469,-3.968 19.27,-7.933 4.535,-2.27 7.937,-3.403 10.203,-3.403 2.269,0 5.101,0.567 8.504,2.266 3.398,1.703 7.367,4.535 13.035,8.504 1.133,0.566 1.699,1.133 1.699,1.133 l 1.703,1.133 h 2.266 l 2.269,-48.176 h -2.269 c -5.102,6.801 -9.637,12.469 -14.738,17.57 -7.368,7.934 -16.434,14.168 -27.77,19.27 -10.769,4.535 -20.973,7.371 -30.043,7.371 -5.101,0 -9.637,-1.137 -14.168,-2.836 -4.535,-1.699 -8.504,-4.535 -11.902,-7.934 -10.203,-10.769 -15.305,-27.207 -15.305,-50.445 0,-5.102 0,-10.203 1.133,-15.871 0.566,-5.102 1.699,-10.203 3.402,-14.738 1.133,-4.536 2.832,-8.5 5.102,-11.336 2.832,-5.102 6.234,-9.067 10.199,-12.469 3.969,-3.403 9.07,-5.668 14.172,-7.367 5.101,-1.703 10.769,-2.836 16.437,-2.836 6.235,0 12.469,1.133 18.704,2.836 6.234,1.699 12.468,4.531 18.136,7.933 5.668,3.403 10.77,7.367 14.739,11.903 3.402,3.402 6.234,6.8 7.933,9.636 2.27,3.403 3.969,7.934 6.238,13.602" /><path
             id="path148"
             style="fill:#0f0f0f;fill-opacity:1;fill-rule:evenodd;stroke:none"
             d="m 998.703,606.477 -27.207,-47.614 h 58.384 z m 19.837,41.375 h 3.4 l 75.38,-118.461 15.31,-11.903 h 3.4 v -2.265 h -86.15 v 2.265 h 3.96 l 14.17,12.469 -15.87,24.941 h -62.913 l -2.266,-3.968 14.168,-33.442 h 3.969 v -2.265 h -51.012 v 2.265 h 3.402 l 25.504,33.442 55.548,96.922" /><path
             id="path150"
             style="fill:#0f0f0f;fill-opacity:1;fill-rule:evenodd;stroke:none"
             d="m 1202.75,646.152 h 92.39 v -2.265 h -4.53 l -20.41,-13.039 v -56.68 l 71.42,56.113 -24.94,13.606 h -5.11 v 2.265 h 68.02 v -2.265 h -4.53 l -27.77,-13.039 -31.75,-24.938 62.92,-75.953 23.24,-12.469 h 4.53 v -2.265 h -98.62 v 2.265 h 4.53 l 12.47,12.469 -41.94,49.879 -12.47,-10.203 v -39.676 l 20.97,-12.469 h 3.97 v -2.265 h -92.39 v 2.265 h 4.54 l 20.4,12.469 v 100.891 l -20.4,13.039 h -4.54 v 2.265" /><path
             id="path152"
             style="fill:#0f0f0f;fill-opacity:1;fill-rule:evenodd;stroke:none"
             d="m 1491.82,646.152 h 158.13 v -48.179 h -1.7 v 3.402 l -40.24,41.375 h -48.18 v -57.812 h 21.54 l 24.94,25.507 v 7.934 h 2.27 V 550.93 h -1.7 v 10.203 l -24.94,20.402 h -22.11 v -62.914 h 48.75 l 41.37,45.344 0.57,4.535 h 1.7 l -2.83,-53.277 h -157.01 v 2.265 h 5.1 l 20.41,12.469 v 100.324 l -20.97,13.606 h -5.1 v 2.265" /><path
             id="path154"
             style="fill:#0f0f0f;fill-opacity:1;fill-rule:evenodd;stroke:none"
             d="m 2021.21,563.398 h -3.97 c -10.2,1.133 -18.7,2.27 -24.94,3.969 -6.8,1.133 -11.9,2.832 -16.44,4.535 -4.53,1.7 -8.5,3.965 -11.9,6.235 -4.53,4.535 -7.93,8.5 -10.77,13.035 -2.26,4.535 -3.96,9.637 -3.96,14.738 0,7.934 2.83,15.305 7.36,21.539 5.11,6.801 11.91,11.903 20.41,15.867 8.5,3.969 17.57,5.668 27.2,5.668 13.61,0 27.78,-3.398 43.08,-10.765 5.1,-2.27 8.51,-3.403 10.77,-3.403 4.54,0 11.34,3.403 21.54,11.336 l 2.83,2.266 h 2.27 v -41.941 h -1.7 c -3.97,4.535 -7.94,7.933 -10.2,10.203 -2.84,2.832 -5.67,5.101 -9.07,7.367 -6.24,4.535 -12.47,8.504 -19.27,11.336 -7.37,3.402 -13.61,5.668 -20.41,7.367 -6.8,1.703 -13.6,2.27 -19.84,2.27 -6.23,0 -11.9,-0.567 -16.43,-2.27 -5.1,-1.133 -8.5,-3.398 -11.34,-6.234 -2.83,-2.832 -3.97,-6.235 -3.97,-9.633 0,-3.403 1.7,-6.238 4.54,-9.07 2.27,-2.266 5.67,-4.536 9.63,-5.668 2.27,-1.133 6.24,-1.7 11.91,-2.836 5.66,-1.133 11.9,-1.7 18.7,-2.832 1.14,0 2.27,0 2.83,0 0.57,0 1.71,0 2.27,-0.567 1.14,0 1.7,0 1.7,0 l 7.37,-1.133 c 14.17,-1.703 24.38,-3.402 31.74,-5.668 7.37,-2.269 13.6,-5.668 18.71,-9.636 10.77,-7.938 16.43,-18.703 16.43,-31.176 0,-5.668 -1.13,-10.77 -3.4,-15.871 -2.26,-5.668 -5.1,-10.199 -9.07,-13.602 -4.53,-5.101 -10.77,-8.5 -18.13,-11.336 -7.37,-2.265 -15.31,-3.402 -24.94,-3.402 -5.67,0 -10.77,0.57 -15.3,1.137 -5.11,0.566 -9.64,1.699 -14.74,3.398 -5.1,1.703 -10.21,3.969 -16.44,6.801 -6.23,3.402 -10.77,4.535 -13.6,4.535 -1.71,0 -3.97,-0.566 -6.81,-2.266 -2.83,-1.132 -7.36,-3.968 -13.03,-8.503 0,0 -0.57,-0.567 -1.13,-1.133 -1.14,0 -1.7,-0.567 -2.27,-1.133 l -3.4,-2.836 h -2.84 v 47.613 h 2.84 c 7.93,-8.504 14.73,-15.304 21.54,-19.84 6.8,-5.101 13.6,-9.632 20.97,-13.035 7.37,-3.402 14.73,-6.234 22.1,-7.933 7.37,-1.703 14.74,-2.836 22.67,-2.836 9.64,0 17.58,2.269 23.24,5.668 6.24,3.968 9.07,9.07 9.07,15.871 0,4.535 -1.7,7.933 -5.1,11.336 -2.27,2.265 -6.23,4.535 -10.77,6.234 -2.27,1.133 -6.8,2.27 -13.04,2.836 -6.23,1.133 -13.6,2.266 -21.53,2.832 -1.7,0 -2.84,0 -3.97,0.566" /><path
             id="path156"
             style="fill:#0f0f0f;fill-opacity:1;fill-rule:evenodd;stroke:none"
             d="m 2186.15,646.152 h 92.39 v -2.265 H 2274 l -20.4,-13.606 v -47.043 h 64.04 v 47.61 l -20.4,13.039 h -4.53 v 2.265 h 91.82 v -2.265 h -3.97 l -20.97,-13.606 V 529.957 l 19.27,-12.469 h 6.23 v -2.265 h -92.38 v 2.265 h 4.53 l 20.4,12.469 v 49.879 h -64.04 v -49.879 l 20.4,-12.469 h 4.54 v -2.265 h -92.39 v 2.265 h 5.1 l 19.27,12.469 v 100.324 l -20.4,13.606 h -3.97 v 2.265" /><path
             id="path158"
             style="fill:#0f0f0f;fill-opacity:1;fill-rule:evenodd;stroke:none"
             d="m 2572.14,644.453 c -9.64,0 -17.01,-1.137 -22.68,-3.402 -5.66,-2.832 -10.19,-6.801 -13.6,-12.469 -2.26,-3.969 -3.97,-8.504 -5.1,-13.605 -1.13,-3.965 -1.7,-9.633 -2.26,-17.004 -0.57,-6.801 -0.57,-14.735 -0.57,-23.239 0,-3.964 0,-9.066 0.57,-14.168 0,-5.668 0.56,-10.203 1.7,-13.605 1.69,-9.066 5.66,-15.871 11.33,-20.402 6.8,-5.668 16.44,-8.504 30.04,-8.504 9.07,0 15.87,1.133 21.54,3.968 5.67,2.266 10.2,6.801 13.6,11.903 2.27,3.402 3.97,7.933 5.11,13.601 1.13,3.403 1.7,9.071 2.26,15.871 0.57,6.801 0.57,14.172 0.57,22.106 0,14.738 -1.13,26.641 -3.97,35.141 -2.83,8.503 -7.37,14.738 -13.04,18.14 -6.23,3.965 -14.73,5.668 -25.5,5.668 z m -3.4,4.531 c 15.87,0 30.04,-2.265 43.08,-7.367 12.47,-4.535 23.8,-11.336 32.3,-20.402 5.67,-5.668 10.2,-11.906 13.61,-18.707 2.83,-6.801 4.53,-13.602 4.53,-20.403 0,-13.039 -3.97,-24.375 -12.47,-34.578 -7.93,-10.199 -19.27,-18.703 -33.44,-24.371 -13.6,-6.234 -28.91,-9.636 -45.91,-9.636 -16.44,0 -31.17,3.402 -45.35,9.636 -13.6,5.668 -24.93,14.172 -33.44,24.371 -7.93,10.203 -11.9,20.973 -11.9,33.442 0,8.504 2.27,17.004 6.8,25.508 5.1,7.933 11.34,15.304 19.84,22.105 8.5,6.234 18.14,11.336 28.91,14.734 10.77,3.403 22.1,5.668 33.44,5.668" /><path
             id="path160"
             style="fill:#0f0f0f;fill-opacity:1;fill-rule:evenodd;stroke:none"
             d="m 2822.66,642.75 v -67.449 h 18.71 c 6.8,0 12.47,1.137 17,2.269 4.54,1.133 8.51,3.399 10.77,6.235 5.67,5.668 8.5,14.168 8.5,26.64 0,6.801 -1.13,12.469 -3.4,17.571 -2.83,5.101 -6.23,8.5 -10.77,10.769 -4.53,2.832 -10.2,3.965 -17,3.965 z m -68.01,3.402 h 100.89 c 5.67,0 11.34,-0.566 17.57,-1.132 6.23,-1.133 11.9,-2.27 17,-3.969 4.54,-1.133 9.07,-2.832 12.47,-5.102 5.67,-2.832 10.21,-7.367 13.04,-12.469 3.4,-4.535 5.1,-10.203 5.1,-15.871 0,-7.367 -2.83,-14.168 -8.5,-19.269 -5.1,-5.102 -13.6,-9.637 -23.81,-11.902 -10.77,-2.836 -23.8,-4.536 -38.54,-4.536 h -27.21 v -41.379 l 20.41,-13.035 h 4.53 v -2.265 h -92.95 v 2.265 h 4.53 l 20.41,12.469 v 100.324 l -20.97,13.606 h -3.97 v 2.265" /><path
             id="path162"
             style="fill:#0f0f0f;fill-opacity:1;fill-rule:evenodd;stroke:none"
             d="m 1771.25,580.969 c 0,15.304 13.04,28.906 28.91,28.906 15.3,0 27.77,-13.602 27.77,-28.906 0,-15.301 -12.47,-27.774 -27.77,-27.774 -15.87,0 -28.91,12.473 -28.91,27.774" /><path
             id="path164"
             style="fill:#0f0f0f;fill-opacity:1;fill-rule:evenodd;stroke:none"
             d="m 503.32,580.969 c 0,15.304 12.469,28.906 27.77,28.906 15.305,0 28.34,-13.602 28.34,-28.906 0,-15.301 -13.035,-27.774 -28.34,-27.774 -15.301,0 -27.77,12.473 -27.77,27.774" /><path
             id="path166"
             style="fill:#0f0f0f;fill-opacity:1;fill-rule:evenodd;stroke:none"
             d="m 3040.32,580.969 c 0,15.304 12.47,28.906 28.34,28.906 15.3,0 27.77,-13.602 27.77,-28.906 0,-15.301 -12.47,-27.774 -27.77,-27.774 -15.87,0 -28.34,12.473 -28.34,27.774" /><path
             id="path168"
             style="fill:#0f0f0f;fill-opacity:1;fill-rule:evenodd;stroke:none"
             d="m 2029.14,1779.75 v -14.73 c 0,-6.81 0,-13.04 1.14,-17.57 1.13,-3.97 2.26,-7.38 4.53,-9.07 2.27,-2.27 4.54,-3.4 7.94,-3.4 5.1,0 9.07,2.26 11.33,6.8 1.71,4.53 2.84,11.33 2.84,20.97 v 24.94 c 0,7.36 0,13.03 -1.13,17 -1.14,3.97 -2.27,6.8 -4.54,9.07 -1.7,2.27 -4.54,3.4 -8.5,3.4 -3.97,0 -7.37,-2.27 -9.64,-5.67 -1.13,-1.7 -2.27,-3.97 -2.83,-6.8 0,-2.26 -0.57,-5.67 -1.14,-10.2 0,-5.1 0,-9.64 0,-14.74 z m 13.04,40.81 c 3.4,0 6.8,-0.56 10.2,-2.27 3.97,-0.56 7.37,-2.26 10.21,-3.96 3.39,-1.7 6.23,-3.97 8.5,-6.24 4.53,-4.53 7.37,-9.63 9.63,-14.73 2.84,-5.67 3.97,-11.34 3.97,-17.01 0,-7.93 -2.27,-15.3 -5.67,-22.1 -3.97,-6.8 -9.07,-11.91 -15.3,-15.87 -6.24,-3.97 -13.6,-6.24 -20.97,-6.24 -5.67,0 -10.77,1.13 -15.87,3.97 -5.1,2.27 -9.64,5.1 -13.61,9.07 -3.4,3.96 -6.8,9.07 -9.07,14.17 -1.7,5.1 -2.83,10.77 -2.83,16.44 0,5.66 1.13,11.33 2.83,17 2.27,5.1 5.67,9.64 9.07,14.17 3.97,3.97 8.51,7.37 13.61,9.63 4.53,2.84 9.63,3.97 15.3,3.97" /><path
             id="path170"
             style="fill:#0f0f0f;fill-opacity:1;fill-rule:evenodd;stroke:none"
             d="m 2144.77,1778.62 h 5.67 c 6.24,0 10.2,1.13 12.47,3.4 0.57,1.13 1.7,2.27 2.27,3.4 0.56,2.27 1.13,4.53 1.7,6.8 0,2.27 0,4.54 0,6.8 -0.57,3.97 -1.14,7.37 -1.7,9.07 -0.57,2.27 -1.14,3.4 -2.84,5.1 -2.83,2.84 -7.93,3.97 -14.73,3.97 -7.94,0 -14.74,-1.13 -20.98,-3.97 -1.13,-1.13 -2.83,-1.7 -3.96,-2.83 -1.14,-1.13 -2.27,-2.27 -3.4,-3.97 4.53,1.7 7.93,2.84 12.46,2.84 3.97,0 7.37,-1.14 9.64,-3.41 2.27,-2.26 3.97,-4.53 3.97,-7.93 0,-3.97 -1.7,-6.8 -4.54,-9.07 -2.83,-2.27 -6.8,-3.4 -11.33,-3.4 -5.1,0 -9.07,1.13 -11.9,3.97 -3.41,2.27 -4.54,5.66 -4.54,9.63 0,2.84 0.57,5.67 2.27,8.5 2.27,2.84 4.53,5.11 7.37,6.81 7.37,3.4 16.43,6.23 28.34,6.23 6.23,0 11.9,-0.56 17.57,-2.27 5.1,-1.13 9.63,-2.26 13.6,-4.53 3.4,-1.7 6.23,-3.97 8.5,-6.24 2.27,-2.83 3.4,-5.66 3.4,-8.5 0,-5.1 -2.26,-9.07 -7.37,-12.47 -2.83,-2.26 -7.93,-4.53 -14.73,-6.23 -2.84,-1.14 -6.8,-1.7 -11.34,-2.27 7.37,-1.13 13.61,-2.26 17.57,-3.96 4.54,-1.14 8.5,-2.84 10.77,-5.11 2.84,-1.7 4.54,-3.96 6.23,-6.23 1.14,-2.27 1.71,-4.54 1.71,-7.37 0,-3.4 -1.13,-6.8 -3.4,-9.64 -1.7,-2.83 -5.11,-5.1 -9.07,-6.8 -3.97,-2.26 -9.07,-3.96 -14.17,-5.1 -5.67,-0.57 -11.9,-1.13 -18.71,-1.13 -3.96,0 -7.37,0 -11.33,0.56 -3.4,0.57 -6.81,1.14 -9.64,2.27 -3.97,0.57 -6.23,1.7 -7.93,2.84 -3.97,2.26 -6.24,4.53 -8.51,7.36 -1.7,3.4 -2.83,6.24 -2.83,9.64 0,3.97 1.7,7.37 4.53,9.64 2.84,2.83 6.24,3.96 10.77,3.96 5.67,0 9.64,-1.13 12.47,-3.96 2.84,-2.27 4.54,-5.11 4.54,-9.07 0,-2.27 -0.57,-4.54 -1.7,-6.24 -1.14,-2.26 -2.84,-3.4 -5.1,-4.53 -1.7,-1.14 -3.97,-1.7 -6.8,-1.7 -3.97,0 -7.37,1.13 -10.21,2.26 h -0.56 c 2.26,-3.4 5.66,-5.67 11.33,-7.93 4.54,-1.7 10.77,-2.83 17.57,-2.83 7.37,0 13.04,1.7 15.87,4.53 1.14,1.7 2.27,3.4 2.84,4.53 1.7,4.54 2.26,9.64 1.7,14.17 0,4.54 -0.57,7.37 -1.14,9.64 -1.13,2.27 -1.7,3.97 -2.83,5.1 -2.84,2.27 -7.37,3.97 -13.6,3.97 h -6.24 v 1.7" /><path
             id="path172"
             style="fill:#0f0f0f;fill-opacity:1;fill-rule:evenodd;stroke:none"
             d="m 1408.5,1802.43 1.13,0.56 c 1.7,1.14 3.97,1.7 5.1,1.7 1.7,0.57 3.4,1.13 5.11,1.13 3.96,0 6.8,-1.13 9.06,-3.39 2.27,-1.71 3.97,-4.54 3.97,-7.94 0,-2.27 -1.13,-4.54 -2.27,-6.24 -1.13,-2.26 -2.83,-3.4 -5.1,-4.53 -2.27,-1.13 -5.1,-1.7 -7.37,-1.7 -4.53,0 -7.93,1.13 -10.77,3.97 -2.83,2.26 -4.53,5.67 -4.53,9.63 0,3.4 1.13,6.81 3.4,10.2 1.7,2.84 4.54,5.67 8.5,7.94 2.27,1.13 4.54,2.27 7.37,3.4 2.83,0.57 5.67,1.13 9.07,2.27 3.4,0.57 6.8,0.57 10.77,0.57 3.4,0 7.37,0 10.77,-0.57 4.53,-1.14 8.5,-2.27 11.9,-2.84 2.84,-1.13 5.67,-2.26 7.94,-3.4 2.83,-1.7 5.1,-3.4 6.8,-5.1 1.7,-1.7 2.83,-3.96 3.97,-6.23 0.56,-2.27 1.13,-4.54 1.13,-6.81 0,-4.53 -1.7,-8.5 -5.1,-11.9 -1.7,-1.13 -3.4,-2.83 -5.1,-3.4 -1.7,-1.13 -3.97,-2.27 -7.37,-3.4 -2.84,-0.56 -6.24,-1.7 -10.2,-2.83 -5.67,-1.14 -8.5,-1.7 -9.64,-2.27 -5.67,-1.7 -10.77,-3.4 -14.74,-4.54 -3.96,-1.69 -7.37,-3.39 -9.63,-5.1 -2.83,-1.7 -5.67,-3.96 -7.94,-6.23 -3.4,-3.4 -6.23,-6.8 -7.37,-11.34 2.84,2.84 5.1,5.67 7.37,7.37 2.84,1.7 5.67,3.4 8.5,5.1 6.24,2.84 13.04,4.54 19.28,4.54 3.4,0 6.8,-0.57 10.2,-1.7 3.4,-0.57 7.37,-2.27 11.9,-4.54 1.7,-0.56 3.4,-1.7 5.1,-2.26 1.14,-0.57 2.84,-0.57 3.4,-1.14 1.14,0 2.27,-0.57 3.41,-0.57 3.39,0 5.66,1.14 7.36,3.41 1.14,2.26 2.27,5.1 2.27,9.63 h 2.27 c -0.57,-4.53 -1.13,-8.5 -1.71,-11.33 -1.13,-2.84 -2.26,-5.67 -4.53,-8.51 -1.7,-2.26 -3.97,-4.53 -6.23,-6.23 -2.84,-1.7 -5.67,-3.4 -8.5,-3.97 -3.41,-1.13 -6.24,-1.7 -9.64,-1.7 -3.97,0 -7.93,0.57 -11.34,1.7 -3.96,1.14 -7.93,3.4 -13.6,6.23 -3.4,2.27 -6.23,3.97 -8.5,4.54 -2.27,1.13 -4.53,1.13 -6.24,1.13 -2.83,0 -4.53,0 -6.8,-1.13 -1.7,-1.13 -2.83,-2.83 -3.97,-5.1 -1.13,-1.7 -2.26,-4.53 -2.26,-7.37 h -2.27 c 0,2.84 0.57,5.67 0.57,7.93 0.56,1.71 1.13,3.97 2.26,5.67 0.57,2.27 1.7,3.97 3.41,6.24 2.26,3.4 5.66,6.8 9.06,9.63 3.97,2.27 9.07,5.1 16.44,8.51 4.54,1.7 8.5,3.97 10.77,5.1 2.27,1.7 4.54,3.4 5.67,5.1 1.7,1.7 3.4,3.97 3.97,5.67 1.13,2.26 1.13,4.53 1.13,7.93 0,7.37 -1.7,13.04 -5.67,17.01 -3.4,3.96 -8.5,6.23 -15.3,6.23 -3.97,0 -7.37,-0.57 -11.34,-1.7 -3.4,-1.13 -6.8,-2.83 -9.07,-4.53 -1.7,-1.7 -2.83,-2.84 -3.96,-3.97 -0.57,-0.57 -1.7,-2.27 -2.27,-4.53" /><path
             id="path174"
             style="fill:#0f0f0f;fill-opacity:1;fill-rule:evenodd;stroke:none"
             d="m 1541.7,1779.75 v -14.73 c 0,-7.37 0.56,-13.04 1.69,-17.57 0.57,-4.54 2.27,-7.94 3.97,-9.64 2.27,-2.27 5.1,-2.83 8.51,-2.83 5.1,0 8.5,2.26 10.77,6.23 2.26,4.53 3.4,11.9 3.4,21.54 v 24.37 c 0,7.37 -0.57,13.04 -1.14,17.01 -1.13,3.96 -2.83,7.36 -4.53,9.63 -2.27,1.7 -5.1,2.83 -8.5,2.83 -4.54,0 -7.94,-1.7 -10.21,-5.66 -1.13,-1.7 -1.7,-3.97 -2.27,-6.24 -0.56,-2.26 -1.13,-5.67 -1.13,-10.77 -0.56,-4.53 -0.56,-9.63 -0.56,-14.17 z m 13.03,40.25 c 3.97,0 7.37,-0.57 10.77,-1.71 3.4,-1.13 6.8,-2.26 10.2,-3.96 2.84,-2.27 5.67,-4.54 8.51,-6.81 4.53,-4.53 7.93,-9.06 10.2,-14.73 2.27,-5.1 3.4,-10.77 3.4,-17 0,-7.94 -1.7,-15.31 -5.67,-22.11 -3.4,-6.8 -9.07,-11.9 -15.87,-15.87 -6.23,-3.97 -13.04,-5.67 -20.97,-5.67 -5.1,0 -10.2,1.13 -15.3,3.4 -5.11,2.27 -9.64,5.1 -13.61,9.64 -3.96,3.96 -6.8,8.5 -9.07,13.6 -2.27,5.67 -3.4,11.34 -3.4,17.01 0,5.66 1.13,10.76 3.4,16.43 2.27,5.1 5.11,10.21 9.07,14.17 3.97,3.97 8.5,7.37 13.04,9.64 5.1,2.26 10.2,3.97 15.3,3.97" /><path
             id="path176"
             style="fill:#0f0f0f;fill-opacity:1;fill-rule:evenodd;stroke:none"
             d="m 1929.95,1886.88 c -10.2,0 -18.13,-7.94 -18.13,-18.14 0,-3.4 0.56,-6.24 2.26,-8.5 l -58.38,-28.91 -47.04,62.35 c 5.67,2.83 9.07,9.07 9.07,15.87 0,10.2 -7.94,18.14 -18.14,18.14 -10.2,0 -18.7,-7.94 -18.7,-18.14 0,-6.8 3.96,-13.04 9.63,-16.44 l -46.48,-61.78 -58.38,28.91 c 1.7,2.26 2.27,5.1 2.27,8.5 0,10.2 -8.5,18.14 -18.14,18.14 -10.2,0 -18.7,-7.94 -18.7,-18.14 0,-10.2 8.5,-18.7 18.7,-18.7 1.14,0 2.27,0.56 3.41,0.56 l 11.33,-58.94 c 4.53,1.7 9.07,2.26 13.04,2.26 7.93,0 15.3,-1.7 18.13,-1.7 4.54,1.14 10.21,4.54 16.44,8.5 6.8,3.41 14.74,7.37 24.37,8.51 1.14,0 2.27,0 3.4,0 7.94,0 15.31,-2.27 21.54,-4.54 6.8,-1.7 13.04,-3.4 18.14,-3.4 5.1,0 10.77,1.7 17.57,3.4 6.8,2.27 14.17,4.54 22.67,4.54 1.13,0 2.27,0 3.4,0 9.64,-1.14 17.01,-5.1 23.81,-8.51 6.8,-3.96 12.47,-7.36 16.44,-8.5 h 0.56 c 2.27,0 10.21,1.7 17.57,1.7 4.54,0 9.07,-0.56 13.61,-2.26 l 11.33,58.94 c 1.14,0 2.27,-0.56 3.4,-0.56 10.21,0 18.71,8.5 18.71,18.7 0,10.2 -8.5,18.14 -18.71,18.14 z m -130.36,-216.52 c -48.75,0 -87.86,-9.64 -87.86,-22.11 0,-11.9 39.11,-21.54 87.86,-21.54 48.75,0 87.86,9.64 87.86,21.54 0,12.47 -39.11,22.11 -87.86,22.11 z m 109.96,105.43 c -1.7,1.13 -3.97,1.69 -7.94,1.69 -5.1,0 -11.33,-1.69 -17.57,-1.69 -1.13,0 -2.83,0 -4.53,0.56 -7.94,2.27 -14.17,6.24 -20.4,9.64 -6.24,3.4 -11.91,6.23 -17.57,6.8 -0.58,0 -1.14,0 -1.71,0 -4.53,0 -10.77,-1.7 -17.57,-3.4 -6.8,-2.27 -14.17,-4.54 -22.67,-4.54 -8.5,0 -16.44,2.27 -22.67,4.54 -6.8,1.7 -13.04,3.4 -17.01,3.4 -0.56,0 -1.13,0 -1.7,0 -5.66,-0.57 -11.9,-3.4 -18.14,-6.8 -6.23,-3.4 -12.46,-7.37 -20.4,-9.64 -1.7,-0.56 -2.83,-0.56 -3.97,-0.56 -6.23,0 -12.47,1.69 -18.13,1.69 -3.41,0 -6.24,-0.56 -7.94,-1.69 -0.57,-0.57 -1.13,-1.14 -1.7,-1.7 l 3.4,-18.71 c 3.97,1.7 8.5,2.27 11.9,2.27 7.94,0 14.74,-1.7 17.01,-1.7 h 0.56 c 3.41,1.13 9.08,3.96 15.31,7.37 6.23,3.96 13.6,7.93 22.67,8.5 1.13,0 2.27,0 3.4,0 7.37,0 14.17,-2.27 20.41,-3.97 6.23,-2.27 11.9,-3.97 17,-3.4 4.54,-0.57 10.2,1.13 16.44,3.4 6.23,1.7 13.03,3.97 21.54,3.97 1.13,0 1.7,0 2.83,0 9.07,-0.57 17,-4.54 23.24,-8.5 6.24,-3.41 11.33,-6.24 15.3,-7.37 2.27,0 9.64,1.7 17.01,1.7 3.96,0 7.93,-0.57 12.46,-2.27 l 3.41,18.14 c -0.57,1.13 -1.14,1.7 -2.27,2.27 z m -6.23,-36.28 c -1.71,1.13 -3.97,1.7 -7.37,1.7 -5.11,0 -10.77,-1.7 -17.01,-1.7 -1.13,0 -2.26,0 -3.97,0.56 -7.36,1.71 -13.6,5.67 -19.27,9.07 -6.23,3.41 -11.33,5.67 -17,6.24 0,0 -0.57,0 -1.13,0 -3.97,0 -10.21,-1.13 -16.44,-3.4 -6.24,-1.7 -13.61,-3.97 -21.54,-3.97 -8.5,0 -15.3,2.27 -21.54,3.97 -6.23,2.27 -11.9,3.4 -15.87,3.4 -0.57,0 -1.13,0 -1.7,0 -5.1,-0.57 -10.77,-2.83 -16.44,-6.24 -6.23,-3.4 -11.9,-7.36 -19.83,-9.07 -1.14,-0.56 -2.84,-0.56 -3.97,-0.56 -5.67,0 -11.9,1.7 -17.01,1.7 -2.83,0 -5.66,-0.57 -6.8,-1.7 -0.56,-0.57 -1.13,-0.57 -1.7,-1.7 l 3.4,-18.7 c 3.97,1.69 7.94,1.69 11.34,1.69 7.37,0 13.6,-1.13 15.87,-1.13 3.4,0.57 8.5,3.4 14.17,6.8 6.23,3.41 13.04,7.37 22.1,7.94 0.57,0 1.71,0 2.84,0 7.37,0 13.6,-2.27 19.84,-3.97 5.66,-1.7 10.76,-3.4 15.3,-3.4 3.97,0 9.64,1.7 15.3,3.4 5.67,1.7 12.47,3.97 20.41,3.97 0.57,0 1.7,0 2.83,0 8.5,-0.57 15.87,-4.53 21.54,-7.94 5.67,-3.4 10.77,-6.23 14.17,-6.8 2.27,0 9.07,1.13 15.87,1.13 3.4,0 7.37,0 11.34,-1.69 l 3.97,18.7 c -0.57,0.57 -1.14,1.13 -1.7,1.7 z m -7.37,-36.28 c -1.14,0.57 -2.84,1.14 -6.24,1.14 -4.53,0 -10.2,-1.14 -15.87,-1.14 -1.13,0 -2.27,0 -3.96,0.57 -6.81,1.7 -12.48,5.1 -18.15,8.5 -5.66,2.84 -10.77,5.1 -15.3,5.67 -0.56,0 -1.13,0 -1.13,0 -3.97,0 -9.64,-1.13 -15.3,-3.4 -6.24,-1.7 -13.04,-3.97 -20.41,-3.97 -7.93,0 -14.74,2.27 -20.41,3.97 -6.23,2.27 -11.33,3.4 -14.73,3.4 -0.57,0 -1.13,0 -1.7,0 -4.54,-0.57 -9.64,-2.83 -14.74,-5.67 -5.67,-3.4 -11.33,-6.8 -18.7,-8.5 -1.7,-0.57 -2.84,-0.57 -3.97,-0.57 -5.67,0 -10.77,1.14 -15.87,1.14 -2.83,0 -5.1,-0.57 -6.24,-1.14 -0.56,-0.56 -1.13,-1.13 -1.69,-1.69 l 4.53,-23.81 c 6.23,3.4 12.47,3.97 17.57,3.97 3.4,0 6.24,-0.57 7.93,-0.57 0.57,0 1.14,0.57 1.14,0.57 3.4,0.56 7.93,2.83 13.6,5.1 5.1,2.83 11.34,5.1 19.27,6.23 1.13,0 2.27,0 3.4,0 6.24,0 11.34,-1.13 16.44,-2.26 5.1,-1.71 10.2,-2.27 14.17,-2.27 3.97,0 8.5,0.56 13.6,2.27 5.1,1.13 10.77,2.26 17.01,2.26 1.13,0 2.26,0 3.4,0 7.94,-1.13 14.17,-3.4 19.84,-6.23 5.1,-2.27 9.63,-4.54 13.03,-5.1 0.57,0 0.57,-0.57 1.14,-0.57 1.69,0 5.1,0.57 7.93,0.57 5.1,0 11.34,-0.57 17.57,-3.97 l 4.53,23.81 c 0,0.56 -0.56,1.13 -1.69,1.69" /></g></g></g></g></svg>