<?xml version="1.0" standalone="no"?>
<!DOCTYPE svg PUBLIC "-//W3C//DTD SVG 20010904//EN"
 "http://www.w3.org/TR/2001/REC-SVG-20010904/DTD/svg10.dtd">
<svg version="1.0" xmlns="http://www.w3.org/2000/svg"
 width="936.000000pt" height="936.000000pt" viewBox="0 0 936.000000 936.000000"
 preserveAspectRatio="xMidYMid meet">
<metadata>
Created by potrace 1.11, written by Peter Selinger 2001-2013
</metadata>
<g transform="translate(0.000000,936.000000) scale(0.100000,-0.100000)"
fill="#000000" stroke="none">
<path d="M4589 9276 c-2 -2 -20 -7 -41 -10 -60 -9 -156 -52 -219 -98 -94 -67
-171 -178 -210 -303 -20 -61 -16 -229 6 -295 42 -127 127 -246 222 -311 23
-17 43 -33 43 -37 0 -4 -11 -20 -25 -37 -13 -16 -108 -142 -211 -280 -103
-137 -191 -251 -196 -253 -4 -2 -8 -10 -8 -17 0 -7 -3 -15 -7 -17 -5 -1 -28
-30 -53 -63 -24 -33 -48 -64 -52 -70 -12 -14 -155 -205 -176 -234 -40 -55
-118 -157 -130 -169 -6 -8 -17 -23 -23 -35 -14 -25 -28 -43 -51 -65 -10 -9
-18 -22 -18 -28 0 -7 -4 -14 -9 -16 -5 -1 -50 -59 -102 -128 -51 -69 -99 -131
-106 -138 -7 -7 -13 -16 -13 -20 0 -4 -14 -22 -30 -41 -17 -18 -30 -36 -30
-40 0 -3 -13 -20 -28 -38 -15 -18 -54 -68 -87 -112 -33 -45 -63 -81 -66 -81
-4 0 -119 56 -255 123 -511 254 -804 398 -811 399 -5 1 -29 14 -56 30 -26 15
-59 31 -72 34 -14 3 -25 10 -25 15 0 5 -4 9 -9 9 -9 0 -105 44 -131 60 -8 5
-105 53 -215 107 -110 53 -201 98 -203 99 -2 1 7 18 19 38 11 20 18 36 14 36
-4 0 -2 6 4 13 6 8 13 31 17 53 8 47 8 190 1 224 -3 14 -8 36 -11 49 -3 12
-10 29 -17 37 -6 8 -9 14 -5 14 8 0 -32 80 -52 103 -8 9 -12 17 -9 17 11 0
-78 87 -128 125 -52 39 -146 85 -175 85 -9 0 -20 3 -24 7 -9 9 -38 13 -111 14
-165 2 -299 -50 -423 -166 -34 -32 -112 -145 -116 -167 -1 -7 -5 -18 -9 -24
-3 -6 -13 -40 -21 -75 -29 -124 -3 -307 55 -391 11 -14 19 -30 19 -35 0 -4 13
-21 28 -38 15 -16 37 -43 50 -59 12 -16 22 -26 22 -23 0 3 14 -7 31 -22 17
-16 58 -42 92 -59 81 -40 121 -51 232 -66 11 -2 44 2 73 9 29 7 54 9 57 5 2
-3 7 -22 10 -41 3 -19 10 -52 15 -74 5 -22 12 -60 15 -85 4 -24 8 -47 11 -51
2 -4 6 -28 9 -55 4 -26 8 -51 10 -54 2 -4 7 -21 10 -38 3 -18 7 -47 11 -64 5
-30 44 -233 58 -303 4 -16 9 -43 12 -60 3 -16 7 -40 10 -52 2 -13 6 -35 9 -50
3 -16 8 -39 11 -53 3 -14 8 -36 10 -50 3 -14 9 -47 14 -75 5 -27 12 -63 15
-80 3 -16 7 -39 9 -50 6 -34 26 -138 32 -165 3 -14 12 -61 20 -105 8 -44 16
-89 19 -100 2 -11 11 -59 21 -107 l17 -86 40 14 c22 8 49 16 61 19 12 2 32 7
46 10 86 19 192 26 325 22 83 -4 161 -8 175 -11 14 -2 52 -8 85 -11 33 -4 69
-9 80 -10 11 -2 42 -6 69 -9 27 -3 52 -8 54 -11 3 -3 11 0 19 6 7 6 13 9 13 6
0 -14 231 88 238 105 2 5 8 8 13 8 6 0 65 33 132 74 221 134 548 272 712 301
6 1 12 3 15 4 32 15 306 22 385 10 33 -5 76 -11 95 -14 52 -6 179 -40 320 -86
69 -23 132 -42 140 -43 35 -5 96 -19 111 -27 8 -4 34 -10 57 -12 22 -3 45 -7
49 -10 4 -3 24 -8 43 -11 19 -3 46 -8 60 -11 141 -30 293 -19 520 37 69 16
132 32 140 33 8 2 15 4 15 5 0 1 9 3 20 5 11 2 65 18 120 35 55 17 107 33 115
35 8 1 40 10 70 19 50 14 70 18 150 32 70 12 95 14 216 19 178 7 280 -9 464
-72 136 -47 373 -159 525 -248 55 -32 79 -46 160 -89 39 -21 75 -41 80 -45 22
-17 146 -61 172 -61 15 -1 48 2 73 5 25 4 54 8 65 9 11 2 40 6 65 9 25 4 63
10 85 13 57 8 380 10 445 2 30 -4 67 -11 83 -17 15 -6 27 -8 27 -6 0 3 16 -2
36 -10 20 -8 44 -15 54 -15 20 0 32 23 24 45 -4 8 -2 15 2 15 5 0 10 10 10 23
2 17 40 221 79 412 4 17 8 41 10 55 2 14 6 36 9 50 3 13 8 42 11 65 4 22 10
56 15 75 5 19 12 51 15 70 3 19 8 42 10 50 2 8 7 35 10 60 4 24 8 47 10 50 3
5 12 56 20 110 1 8 6 33 11 55 10 51 9 43 19 95 5 25 9 47 10 50 1 3 5 28 10
55 5 28 10 52 10 55 1 3 5 23 10 45 4 22 10 49 12 60 2 11 6 34 8 50 3 17 7
41 10 55 3 14 12 60 20 103 16 86 22 100 36 92 16 -10 52 -16 104 -15 250 1
482 194 539 447 29 131 14 250 -46 371 -48 95 -201 242 -252 242 -9 0 -16 5
-16 10 0 6 -8 10 -18 10 -10 0 -22 3 -26 8 -4 4 -11 7 -14 8 -4 0 -34 6 -67
14 -53 12 -164 15 -205 6 -8 -1 -33 -6 -55 -11 -22 -4 -44 -11 -50 -15 -5 -5
-13 -9 -17 -9 -52 -8 -161 -89 -223 -164 -41 -48 -94 -156 -101 -202 -2 -11
-7 -43 -12 -71 -16 -94 -2 -216 32 -287 l23 -48 -21 -11 c-11 -7 -115 -59
-231 -115 -115 -57 -219 -109 -230 -115 -29 -16 -42 -22 -130 -65 -44 -21 -82
-41 -83 -46 -2 -4 -7 -5 -12 -2 -5 3 -14 -1 -22 -8 -7 -8 -26 -17 -41 -21 -15
-3 -27 -11 -27 -16 0 -6 -5 -10 -12 -10 -6 0 -70 -29 -142 -65 -72 -35 -135
-64 -140 -64 -5 0 -12 -3 -15 -8 -5 -8 -83 -47 -491 -247 -58 -28 -108 -55
-112 -61 -4 -5 -8 -6 -8 -2 0 5 -10 1 -22 -7 -12 -9 -27 -16 -33 -16 -6 0 -55
60 -110 133 -55 72 -102 134 -105 137 -3 3 -23 30 -45 60 -22 30 -42 57 -45
60 -3 3 -17 21 -30 40 -14 19 -35 46 -47 60 -13 14 -23 29 -23 34 0 5 -11 19
-25 32 -14 13 -25 26 -25 30 0 3 -11 20 -25 38 -14 17 -29 36 -33 41 -51 70
-67 91 -74 93 -4 2 -8 10 -8 18 0 8 -3 14 -7 14 -5 0 -19 17 -33 38 -14 20
-34 47 -45 59 -11 12 -38 47 -60 79 -22 31 -48 65 -57 75 -10 10 -18 21 -18
24 0 3 -7 13 -15 22 -13 15 -312 410 -370 489 -20 28 -68 91 -83 109 -4 6 -21
28 -37 50 -17 22 -32 42 -35 45 -3 3 -24 31 -48 62 l-42 58 39 25 c88 55 186
186 208 277 21 90 29 152 26 208 -2 57 -9 105 -13 105 -1 0 -3 8 -5 17 -16 84
-94 210 -170 274 -55 46 -131 88 -200 110 -44 14 -236 29 -246 20z"/>
<path d="M3384 5154 c-5 -1 -43 -10 -84 -19 -80 -18 -219 -70 -310 -115 -131
-65 -205 -104 -210 -110 -3 -3 -21 -14 -40 -24 -19 -9 -44 -23 -55 -30 -23
-14 -148 -79 -155 -81 -3 -1 -34 -15 -70 -32 -58 -27 -95 -43 -110 -48 -3 -1
-12 -4 -20 -8 -74 -30 -184 -52 -240 -50 -47 3 -165 13 -205 19 -22 3 -56 7
-75 10 -87 12 -133 15 -246 18 -143 3 -227 -18 -280 -72 -17 -17 -30 -32 -29
-34 2 -2 13 -57 25 -123 25 -134 28 -150 30 -150 1 0 3 -16 5 -35 3 -19 7 -46
10 -60 3 -14 8 -36 10 -50 7 -45 15 -94 21 -122 5 -26 6 -26 40 -12 18 8 35
14 36 13 2 -1 23 4 48 11 115 31 182 36 360 27 58 -3 121 -8 140 -11 190 -29
274 -35 310 -25 8 3 41 17 74 32 32 15 64 27 71 27 8 0 15 3 17 8 2 4 68 40
148 81 80 41 152 80 161 87 8 8 19 14 22 14 4 0 26 12 49 26 99 63 306 152
393 170 57 11 74 14 120 21 90 13 318 6 395 -12 14 -3 41 -7 60 -10 19 -3 103
-23 185 -45 83 -23 155 -42 160 -43 6 -2 53 -17 105 -34 82 -27 141 -44 160
-45 3 0 15 -4 27 -9 52 -20 266 -28 368 -15 57 8 90 14 90 16 0 1 11 3 25 5
14 1 68 17 120 35 52 17 100 33 105 34 6 2 17 6 25 9 13 5 169 49 220 62 60
15 120 27 150 31 41 5 75 12 75 14 0 1 27 4 60 7 103 10 307 6 365 -6 91 -19
94 -20 128 -30 18 -5 33 -10 35 -10 16 0 220 -87 267 -114 25 -14 62 -34 83
-44 20 -10 37 -21 37 -25 0 -5 4 -8 8 -8 5 0 71 -34 148 -76 76 -41 182 -94
234 -117 115 -50 119 -50 385 -12 17 3 75 7 130 10 55 4 106 8 113 10 6 3 12
-1 12 -7 0 -7 4 -7 13 1 8 6 16 9 18 7 2 -2 33 -7 69 -10 73 -5 187 -30 237
-51 40 -17 42 -16 58 78 17 97 23 122 25 122 1 0 3 9 4 20 3 20 12 69 21 115
3 14 7 36 10 50 2 14 9 57 16 97 l13 72 -30 26 c-33 30 -92 59 -144 73 -34 8
-233 8 -295 -1 -16 -2 -55 -7 -86 -11 -31 -4 -67 -9 -80 -11 -31 -6 -173 -16
-225 -16 -69 0 -163 18 -183 35 -8 6 -17 10 -20 8 -11 -5 -119 39 -241 98 -17
8 -110 59 -125 68 -5 4 -12 7 -15 7 -3 0 -39 21 -80 45 -41 24 -77 45 -80 45
-3 0 -9 3 -15 7 -32 20 -225 116 -225 112 0 -3 -12 2 -27 10 -38 21 -136 53
-208 69 -77 17 -181 15 -305 -8 -63 -11 -78 -14 -120 -25 -87 -22 -205 -51
-230 -56 -14 -3 -63 -18 -110 -34 -47 -16 -98 -32 -115 -36 -16 -4 -34 -8 -40
-10 -62 -16 -156 -36 -180 -39 -16 -2 -55 -7 -85 -11 -71 -10 -281 -9 -345 1
-27 4 -63 9 -80 10 -16 1 -37 5 -45 8 -8 3 -28 8 -45 10 -59 10 -161 38 -264
73 -57 19 -122 39 -145 44 -77 16 -114 25 -216 50 -58 14 -154 32 -165 30 -5
-1 -12 -1 -15 0 -8 3 -125 7 -136 4z"/>
<path d="M3508 4015 c-2 -1 -25 -5 -53 -8 -27 -4 -61 -9 -75 -13 -71 -18 -150
-45 -195 -65 -27 -12 -52 -23 -55 -23 -8 -2 -235 -125 -305 -167 -84 -49 -269
-139 -286 -139 -10 0 -20 -4 -23 -9 -3 -4 -20 -12 -38 -16 -37 -9 -47 -12 -50
-15 -2 -1 -16 -4 -33 -6 -16 -3 -34 -9 -40 -14 -11 -9 -233 -6 -300 3 -16 2
-57 8 -90 12 -33 4 -71 9 -85 11 -76 13 -220 12 -268 0 -29 -8 -52 -12 -52
-10 0 6 -24 -13 -66 -53 -19 -17 -32 -37 -29 -45 5 -14 14 -58 20 -98 3 -14 9
-47 15 -75 6 -27 12 -63 14 -80 2 -16 6 -40 9 -51 3 -12 8 -39 11 -60 4 -22
12 -68 18 -104 7 -36 11 -68 10 -72 -3 -11 36 -10 57 2 37 19 157 34 281 33
108 0 306 -11 345 -19 17 -3 66 -6 110 -7 67 -1 92 4 150 27 39 16 73 33 76
38 3 6 8 8 11 6 3 -1 66 32 141 75 75 42 140 77 146 77 5 0 11 4 13 8 4 11
216 114 298 145 58 21 109 36 190 53 108 23 292 21 440 -6 61 -10 347 -84 380
-97 8 -3 20 -7 25 -8 6 -2 51 -15 100 -31 96 -30 95 -29 140 -38 17 -3 41 -9
55 -12 62 -15 180 -20 235 -10 17 3 46 8 65 11 19 3 53 11 75 17 22 5 47 12
55 13 8 2 15 4 15 5 0 1 7 3 15 5 8 2 85 24 170 50 85 26 169 49 185 52 17 3
37 9 45 13 8 4 32 11 53 14 20 3 53 9 73 12 20 3 46 8 58 11 38 8 109 13 216
13 99 1 131 -2 190 -14 14 -3 41 -9 60 -12 105 -20 348 -131 535 -246 28 -17
69 -42 93 -55 23 -12 62 -34 87 -48 25 -13 45 -22 45 -19 0 4 11 -1 24 -9 36
-24 138 -47 182 -42 344 39 595 38 720 -4 39 -13 53 -14 62 -5 6 7 9 14 6 17
-3 3 -1 22 5 43 6 22 13 53 16 69 2 17 7 44 10 60 3 17 8 38 11 47 7 23 14 58
19 92 2 15 7 36 10 46 3 10 8 29 10 42 2 13 10 52 17 86 l12 64 -38 33 c-49
42 -125 60 -246 59 -136 -2 -210 -8 -210 -16 0 -4 -10 -7 -22 -7 -13 1 -48 -2
-78 -6 -113 -16 -313 -9 -370 12 -8 3 -22 7 -30 9 -34 7 -199 78 -260 111 -36
20 -81 45 -100 56 -19 11 -71 40 -115 66 -98 58 -248 131 -269 131 -8 0 -16 3
-18 8 -3 7 -122 48 -170 58 -107 23 -198 21 -359 -10 -47 -9 -123 -28 -170
-42 -77 -23 -243 -71 -279 -80 -8 -2 -33 -8 -55 -14 -63 -17 -71 -18 -180 -35
-22 -4 -56 -10 -76 -14 -49 -11 -315 -11 -370 0 -24 4 -80 15 -124 24 -44 9
-89 18 -100 20 -11 3 -29 7 -40 9 -11 2 -33 9 -50 16 -16 6 -32 11 -35 11 -8
0 -54 10 -70 16 -8 3 -19 7 -25 8 -5 2 -35 10 -65 20 -80 25 -231 65 -260 69
-14 3 -52 7 -85 11 -33 3 -72 8 -87 10 -15 1 -28 2 -30 0z"/>
<path d="M3495 2861 c-3 -2 -15 -6 -26 -8 -42 -6 -221 -73 -230 -86 -3 -5 -8
-7 -10 -6 -6 5 -136 -64 -228 -120 -46 -28 -88 -51 -94 -51 -5 0 -21 -9 -37
-20 -15 -11 -30 -17 -34 -13 -3 3 -6 1 -6 -5 0 -7 -4 -12 -10 -12 -5 0 -33
-11 -62 -24 -51 -23 -166 -65 -198 -71 -8 -2 -34 -8 -58 -14 -23 -7 -47 -9
-52 -6 -6 3 -10 3 -10 -2 0 -8 -17 -8 -167 2 -99 6 -106 7 -115 20 -5 6 -8 6
-8 -1 0 -8 -16 -8 -52 -2 -92 15 -258 12 -317 -6 -54 -16 -117 -68 -106 -86 4
-6 8 -23 11 -38 2 -15 7 -43 11 -62 3 -19 7 -48 9 -63 1 -16 6 -36 9 -45 4
-10 9 -35 11 -57 2 -22 7 -47 10 -55 3 -8 8 -28 11 -45 2 -16 13 -74 24 -129
10 -54 19 -108 20 -120 0 -11 6 -38 12 -58 l12 -38 30 16 c37 19 190 71 230
78 79 14 108 17 168 20 36 2 70 7 76 11 6 3 11 3 11 -2 0 -4 35 -9 78 -10 42
0 100 -3 127 -5 73 -7 273 62 530 182 133 62 175 80 175 73 0 -3 7 1 16 8 9 7
21 14 28 15 6 1 45 11 86 23 228 64 362 71 630 35 14 -1 50 -8 80 -14 64 -13
91 -18 123 -24 12 -2 65 -15 117 -29 52 -14 132 -30 176 -36 103 -15 337 -7
429 14 39 9 78 18 88 20 9 2 21 6 26 10 26 15 299 64 401 71 30 2 55 4 55 5 0
0 45 2 100 4 186 4 430 -54 653 -157 46 -21 86 -38 88 -38 2 0 40 -18 83 -39
44 -22 82 -37 85 -33 3 3 6 1 6 -5 0 -5 6 -10 13 -10 6 0 28 -7 47 -15 86 -38
189 -65 237 -61 26 2 69 5 95 6 27 1 48 7 48 12 0 7 3 7 8 0 4 -5 48 -11 97
-11 150 -2 299 -32 397 -79 60 -29 93 -33 84 -10 -3 8 -1 15 5 15 6 0 8 4 5 8
-3 5 1 38 9 73 7 36 16 81 19 100 3 19 8 45 11 59 3 14 8 41 11 60 3 19 12 67
21 105 8 39 16 79 19 90 2 10 6 35 9 55 3 20 8 47 10 60 19 93 19 94 -17 115
-18 11 -51 26 -73 33 -44 14 -198 18 -285 7 -81 -10 -126 -14 -218 -20 -46 -2
-87 -7 -93 -10 -5 -4 -9 -1 -9 6 0 9 -3 10 -11 2 -7 -7 -30 -7 -77 3 -142 27
-322 101 -477 196 -16 10 -41 23 -55 30 -14 7 -27 15 -30 19 -7 9 -206 103
-280 132 -36 14 -101 36 -144 47 -138 38 -278 18 -606 -85 -63 -20 -125 -39
-137 -41 -12 -2 -34 -9 -48 -14 -14 -5 -25 -7 -25 -5 0 2 -12 0 -27 -6 -16 -6
-39 -12 -53 -14 -14 -3 -41 -7 -60 -10 -19 -3 -46 -8 -60 -12 -74 -19 -388
-18 -420 2 -3 2 -26 6 -50 10 -25 3 -53 8 -62 11 -9 3 -25 6 -35 8 -36 7 -110
28 -220 62 -62 19 -116 35 -120 36 -5 1 -24 8 -43 16 -19 8 -37 14 -40 13 -3
0 -23 4 -45 10 -42 12 -49 13 -130 28 -53 10 -201 11 -210 2z"/>
<path d="M4537 1413 c-1 0 -94 -4 -207 -6 -113 -3 -205 -6 -205 -7 0 0 -38 -3
-85 -5 -137 -8 -225 -14 -225 -15 0 -1 -22 -3 -50 -5 -27 -2 -77 -6 -110 -10
-33 -3 -76 -8 -95 -9 -79 -8 -227 -28 -295 -40 -16 -2 -48 -7 -70 -11 -23 -3
-52 -8 -65 -10 -14 -3 -38 -7 -55 -10 -75 -13 -141 -27 -155 -32 -8 -3 -18 -6
-21 -5 -3 1 -42 -8 -85 -20 -43 -11 -88 -21 -99 -23 -11 -1 -33 -7 -48 -14
-16 -6 -33 -11 -38 -11 -15 0 -218 -71 -248 -86 -14 -8 -31 -14 -37 -14 -17 0
-173 -88 -219 -123 -47 -36 -114 -108 -115 -122 0 -5 -6 -21 -13 -35 -21 -39
-7 -135 25 -175 29 -36 58 -63 88 -85 19 -13 37 -27 40 -30 35 -38 300 -150
465 -195 33 -9 90 -25 126 -36 37 -11 70 -19 75 -18 5 2 29 -3 54 -10 25 -7
56 -15 70 -17 14 -3 72 -13 130 -24 58 -11 121 -21 140 -24 19 -2 46 -7 60
-10 14 -3 45 -7 70 -10 25 -3 56 -7 70 -10 14 -2 54 -7 90 -10 36 -3 81 -8
100 -12 19 -3 59 -6 88 -6 28 -1 52 -4 52 -7 0 -4 24 -7 53 -7 28 -1 88 -4
132 -8 369 -28 1144 -28 1475 -1 30 3 84 7 120 10 112 8 234 20 305 30 28 3
70 8 95 10 25 2 45 4 45 5 0 1 9 3 20 4 87 12 128 18 180 28 33 6 69 12 80 13
11 2 57 10 103 20 45 9 93 18 105 21 13 2 68 15 123 29 54 15 110 28 123 31
13 3 31 9 40 13 9 5 21 10 26 10 55 7 252 84 345 134 115 62 196 130 226 190
40 75 16 177 -58 249 -56 55 -98 90 -98 81 0 -3 -8 1 -17 9 -24 22 -179 98
-198 98 -8 0 -15 3 -15 8 0 4 -35 18 -78 32 -42 13 -81 27 -87 31 -5 4 -23 9
-40 12 -16 3 -41 9 -55 15 -14 5 -28 10 -32 11 -5 0 -9 1 -10 2 -2 0 -10 2
-18 4 -8 2 -44 11 -80 20 -36 9 -78 18 -95 21 -16 3 -47 10 -68 15 -21 6 -50
12 -65 14 -15 2 -38 6 -52 9 -29 6 -130 23 -180 30 -19 3 -46 8 -60 10 -39 7
-110 16 -165 22 -27 2 -68 7 -90 10 -84 10 -219 22 -330 30 -49 3 -115 7 -145
9 -158 11 -756 25 -763 18z"/>
</g>
</svg>
