<?xml version="1.0" encoding="UTF-8" standalone="no"?>
<!-- Created with Inkscape (http://www.inkscape.org/) -->

<svg
   xmlns:dc="http://purl.org/dc/elements/1.1/"
   xmlns:cc="http://creativecommons.org/ns#"
   xmlns:rdf="http://www.w3.org/1999/02/22-rdf-syntax-ns#"
   xmlns:svg="http://www.w3.org/2000/svg"
   xmlns="http://www.w3.org/2000/svg"
   xmlns:sodipodi="http://sodipodi.sourceforge.net/DTD/sodipodi-0.dtd"
   xmlns:inkscape="http://www.inkscape.org/namespaces/inkscape"
   version="1.1"
   id="svg10"
   xml:space="preserve"
   width="450.06293"
   height="175.3548"
   viewBox="0 0 450.06293 175.35479"
   sodipodi:docname="edit-header.svg"
   inkscape:version="0.92.2 (5c3e80d, 2017-08-06)"><metadata
     id="metadata16"><rdf:RDF><cc:Work
         rdf:about=""><dc:format>image/svg+xml</dc:format><dc:type
           rdf:resource="http://purl.org/dc/dcmitype/StillImage" /><dc:title></dc:title></cc:Work></rdf:RDF></metadata><defs
     id="defs14" /><sodipodi:namedview
     pagecolor="#ffffff"
     bordercolor="#666666"
     borderopacity="1"
     objecttolerance="10"
     gridtolerance="10"
     guidetolerance="10"
     inkscape:pageopacity="0"
     inkscape:pageshadow="2"
     inkscape:window-width="1920"
     inkscape:window-height="1001"
     id="namedview12"
     showgrid="false"
     inkscape:zoom="2.8125"
     inkscape:cx="225.04693"
     inkscape:cy="57.328137"
     inkscape:window-x="0"
     inkscape:window-y="51"
     inkscape:window-maximized="1"
     inkscape:current-layer="g18"
     fit-margin-top="5"
     fit-margin-left="5"
     fit-margin-right="5"
     fit-margin-bottom="5" /><g
     id="g18"
     inkscape:groupmode="layer"
     inkscape:label="ink_ext_XXXXXX"
     transform="matrix(1.3333333,0,0,-1.3333333,-14.953066,262.02666)"><g
       id="g20"
       transform="scale(0.1)"><path
         d="m 917.66,1314.96 c 0,-43.63 -24.961,-74.8 -88.988,-117.3 12.457,-31.18 18.129,-51.61 18.129,-82.19 0,-209.732 -231.25,-427.931 -450.039,-427.931 -62.934,0 -104.852,16.441 -148.524,57.231 53.282,-31.18 92.422,-41.961 145.711,-41.961 213.082,0 438.672,217.66 438.672,423.401 0,29.49 -2.269,51.02 -13.601,86.76 58.949,28.32 92.968,73.67 92.968,125.23 0,1.14 0,6.84 -1.129,11.92 5.082,-15.86 6.801,-22.66 6.801,-35.16"
         style="fill:#0f0f0f;fill-opacity:1;fill-rule:evenodd;stroke:none"
         id="path78"
         inkscape:connector-curvature="0" /><path
         d="M 654.648,1183.48 549.801,1165.9 c -123,-21.52 -187.031,-46.49 -240.313,-87.27 -56.129,-44.8 -86.168,-98.079 -86.168,-152.501 0,-80.469 65.739,-137.688 158.711,-137.688 77.66,0 163.789,46.438 226.129,121.289 48.211,56.09 75.391,132.07 75.391,202.89 0,24.37 -2.813,42.54 -9.602,73.71 z m -3.949,81.64 c -6.789,16.4 -14.758,38.51 -26.09,68.55 -25.507,68.05 -34.019,100.31 -34.019,142.85 0,165.51 150.23,312.31 318.551,312.31 96.909,0 155.899,-55.55 155.899,-146.8 0,-108.28 -73.712,-191.6 -169.489,-191.6 -64.071,0 -104.852,32.89 -104.852,87.3 0,66.29 51.571,128.68 103.711,128.68 26.059,0 43.641,-16.45 43.641,-41.96 0,-19.25 -9.61,-32.3 -27.192,-37.42 -1.718,14.18 -6.8,19.3 -16.449,19.3 -24.922,0 -50.43,-35.74 -50.43,-66.92 0,-23.24 17.54,-42.5 40.79,-42.5 58.941,0 123,78.79 123,150.2 0,56.13 -36.829,91.84 -94.098,91.29 -115.043,0.55 -217.652,-99.22 -217.652,-211.45 0,-44.76 6.789,-66.87 55.539,-160.97 16.453,-33.99 24.961,-50.43 37.421,-80.47 28.911,14.18 48.168,36.83 48.168,58.94 0,10.78 -4.527,19.26 -16.41,30.04 7.934,18.71 16.41,25.51 32.852,25.51 24.379,0 43.64,-20.39 43.64,-47.62 0,-44.76 -32.851,-85.58 -92.929,-116.76 5.078,-35.7 7.929,-53.28 7.929,-79.33 0,-112.81 -49.3,-219.38 -141.14,-304.962 -84.449,-80.469 -181.36,-122.969 -277.141,-122.969 -137.738,0 -244.301,92.93 -244.301,214.219 0,78.792 46.442,163.242 120.153,216.522 62.898,43.63 126.961,61.21 270.359,71.99 58.942,5.67 82.18,8.52 119.02,12.46 l -8.481,21.57"
         style="fill:#0f0f0f;fill-opacity:1;fill-rule:evenodd;stroke:none"
         id="path80"
         inkscape:connector-curvature="0" /><path
         d="M 640.469,1139.26 C 498.199,1116.6 446.641,1105.82 398.48,1085.43 310.59,1045.74 263.012,984.531 263.012,909.73 c 0,-10.781 1.679,-19.3 3.937,-40.82 -13.59,23.238 -17.57,36.828 -17.57,57.219 0,66.922 47.609,128.131 128.121,166.101 36.84,17.57 73.09,29.49 127.539,40.23 34.57,6.8 88.981,14.73 133.75,21.52 l 15.313,2.86 2.808,-14.73 -16.441,-2.85"
         style="fill:#0f0f0f;fill-opacity:1;fill-rule:evenodd;stroke:none"
         id="path82"
         inkscape:connector-curvature="0" /><path
         d="m 914.801,1697.58 c -101.442,0 -183.629,-93.56 -183.629,-208.6 v -16.44 c -5.121,24.37 -6.793,35.16 -6.793,51.6 0,97.46 88.98,185.9 184.762,185.9 24.961,0 39.687,-5.66 55,-20.39 -20.43,6.8 -31.762,7.93 -49.34,7.93"
         style="fill:#0f0f0f;fill-opacity:1;fill-rule:evenodd;stroke:none"
         id="path84"
         inkscape:connector-curvature="0" /><path
         d="m 1099.02,1601.21 c 0,-95.78 -90.66,-192.69 -181.95,-192.69 -30.039,0 -52.148,10.74 -79.34,36.83 30.04,-16.44 46.489,-22.11 72.54,-22.11 96.92,0 177.43,94.65 177.43,205.2 0,6.79 0,17.54 -1.72,31.17 9.64,-23.24 13.04,-36.88 13.04,-58.4"
         style="fill:#0f0f0f;fill-opacity:1;fill-rule:evenodd;stroke:none"
         id="path86"
         inkscape:connector-curvature="0" /><path
         d="m 870.59,1539.41 c 0,14.73 11.359,30.04 22.109,30.04 4.531,0 6.832,-1.09 11.36,-3.94 -18.161,-15.31 -22.11,-22.11 -27.219,-41.37 -5.121,5.66 -6.25,9.61 -6.25,15.27"
         style="fill:#0f0f0f;fill-opacity:1;fill-rule:evenodd;stroke:none"
         id="path88"
         inkscape:connector-curvature="0" /><path
         d="m 962.422,1592.15 c 0,-14.73 -10.781,-28.36 -24.371,-28.36 -6.801,0 -10.781,2.85 -19.852,7.97 1.723,0 2.852,0 3.992,0 22.649,0 30.579,12.46 33.43,47.03 5.668,-14.18 6.801,-19.84 6.801,-26.64"
         style="fill:#0f0f0f;fill-opacity:1;fill-rule:evenodd;stroke:none"
         id="path90"
         inkscape:connector-curvature="0" /><path
         d="m 1037.23,875.699 c -28.87,0 -43.64,7.93 -61.761,31.18 19.261,-13.598 35.701,-19.258 56.091,-18.719 53.87,0 104.3,37.969 151.92,112.23 v -26.05 c -41.96,-63.481 -94.1,-98.641 -146.25,-98.641"
         style="fill:#0f0f0f;fill-opacity:1;fill-rule:evenodd;stroke:none"
         id="path92"
         inkscape:connector-curvature="0" /><path
         d="m 1322.89,1396.6 c -73.67,0 -144.49,-47.62 -200.62,-138.87 -42.5,-69.72 -81.06,-182.5 -81.06,-239.18 0,-6.79 1.13,-11.91 2.85,-17.57 1.14,-3.992 2.82,-7.929 2.82,-10.781 0,-2.82 -2.82,-5.668 -5.67,-5.668 -7.93,0 -15.31,15.309 -15.31,36.839 0,66.33 44.22,184.76 93.51,257.89 56.14,83.32 130.94,130.94 202.39,130.94 16.4,0 27.18,-1.14 48.71,-7.93 l -7.93,-10.79 c -17.54,3.99 -27.19,5.12 -39.69,5.12"
         style="fill:#0f0f0f;fill-opacity:1;fill-rule:evenodd;stroke:none"
         id="path94"
         inkscape:connector-curvature="0" /><path
         d="m 1303.09,876.84 c -18.71,0 -31.18,6.789 -48.75,26.09 17.57,-12.5 28.32,-16.45 41.95,-16.45 37.38,0 77.07,33.989 138.87,116.76 l 7.93,-15.31 c -64.07,-83.871 -99.77,-111.09 -140,-111.09"
         style="fill:#0f0f0f;fill-opacity:1;fill-rule:evenodd;stroke:none"
         id="path96"
         inkscape:connector-curvature="0" /><path
         d="m 1497.46,1341.05 c 0,-27.22 -23.2,-50.43 -57.23,-58.94 -14.72,-27.23 -23.24,-43.63 -46.48,-92.38 l -37.97,-81.06 c -26.05,-54.41 -47.62,-108.83 -47.62,-124.139 0,-6.801 -1.68,-10.781 -5.66,-10.781 -4.53,0 -7.34,5.66 -7.34,13.629 0,21.531 18.12,66.881 60.62,154.141 l 34.02,69.73 c 24.38,50.47 30.04,61.21 40.79,83.32 35.74,6.8 56.13,28.32 62.93,66.88 2.85,-9.61 3.94,-15.32 3.94,-20.4"
         style="fill:#0f0f0f;fill-opacity:1;fill-rule:evenodd;stroke:none"
         id="path98"
         inkscape:connector-curvature="0" /><path
         d="m 1977.58,875.699 c -28.36,0 -43.67,7.93 -61.21,31.18 19.25,-13.598 35.11,-18.719 56.09,-19.258 53.28,0 103.71,38.508 151.92,112.769 v -26.05 c -42.5,-63.481 -94.65,-98.641 -146.8,-98.641"
         style="fill:#0f0f0f;fill-opacity:1;fill-rule:evenodd;stroke:none"
         id="path100"
         inkscape:connector-curvature="0" /><path
         d="m 2263.79,1396.6 c -74.26,0 -145.08,-47.62 -201.21,-138.87 -42.5,-69.72 -81.06,-182.5 -81.06,-239.18 0,-6.79 1.72,-11.91 2.86,-17.57 1.67,-3.992 2.81,-7.929 2.81,-10.781 0,-2.82 -2.81,-5.668 -5.67,-5.668 -7.93,0 -14.72,15.309 -14.72,36.839 0,65.74 43.63,184.76 92.97,257.89 56.09,83.32 131.48,130.94 202.34,130.94 16.44,0 27.19,-1.14 49.3,-7.93 l -8.52,-10.79 c -17.54,3.99 -27.19,5.12 -39.1,5.12"
         style="fill:#0f0f0f;fill-opacity:1;fill-rule:evenodd;stroke:none"
         id="path102"
         inkscape:connector-curvature="0" /><path
         d="m 2243.95,876.84 c -19.26,0 -31.72,6.789 -49.3,26.09 17.58,-12.5 28.9,-16.45 42.5,-16.45 37.42,0 77.11,33.989 138.32,116.18 l 8.48,-14.73 c -64.61,-83.871 -99.73,-111.09 -140,-111.09"
         style="fill:#0f0f0f;fill-opacity:1;fill-rule:evenodd;stroke:none"
         id="path104"
         inkscape:connector-curvature="0" /><path
         d="m 2438.4,1341.05 c 0,-27.22 -23.24,-50.43 -57.27,-58.94 -15.31,-27.23 -23.24,-43.63 -46.48,-92.38 l -39.1,-81.06 c -25.51,-54.41 -47.62,-108.83 -47.62,-124.139 0,-6.801 -1.13,-10.781 -5.66,-10.781 -3.99,0 -6.8,5.66 -6.8,13.629 0,22.071 18.12,66.881 60.08,154.141 l 35.11,69.73 c 24.38,50.47 30.04,61.21 40.82,83.32 35.16,6.8 56.14,28.32 62.93,66.88 2.27,-9.61 3.99,-15.32 3.99,-20.4"
         style="fill:#0f0f0f;fill-opacity:1;fill-rule:evenodd;stroke:none"
         id="path106"
         inkscape:connector-curvature="0" /><path
         d="m 1505.98,888.16 c -24.38,-0.539 -28.91,-2.808 -35.71,-26.051 l -8.47,13.59 c 8.47,23.25 15.27,28.91 47.03,28.91 h 102.03 l 3.94,15.313 c 34.58,100.898 74.26,197.228 117.9,283.398 36.83,73.67 62.34,115.63 91.25,148.52 l 6.83,-10.79 c -64.06,-79.33 -147.38,-256.21 -203.51,-430.78 l -6.8,-22.11 h -114.49"
         style="fill:#0f0f0f;fill-opacity:1;fill-rule:evenodd;stroke:none"
         id="path108"
         inkscape:connector-curvature="0" /><path
         d="m 1954.88,1398.28 c 0,-38.51 -32.85,-75.94 -65.74,-75.94 -6.8,0 -12.46,1.72 -22.11,5.67 49.88,3.98 82.77,38.55 82.77,85.04 v 13.59 c 3.95,-14.73 5.08,-21.52 5.08,-28.36"
         style="fill:#0f0f0f;fill-opacity:1;fill-rule:evenodd;stroke:none"
         id="path110"
         inkscape:connector-curvature="0" /><path
         d="m 2477.46,888.16 c -28.91,0 -39.65,-4.531 -50.43,-24.922 l -6.8,13.602 c 17.58,23.238 24.38,26.09 57.23,27.219 h 99.77 c 39.14,122.971 82.77,223.871 143.39,333.831 44.22,80.51 99.77,157.58 113.36,157.58 2.86,0 6.8,-2.85 6.8,-6.8 0,-1.72 -1.09,-2.85 -2.23,-3.98 -78.24,-78.21 -198.94,-318.56 -249.41,-497.069 l -111.68,0.539"
         style="fill:#0f0f0f;fill-opacity:1;fill-rule:evenodd;stroke:none"
         id="path112"
         inkscape:connector-curvature="0" /><path
         d="m 2766.56,1454.96 -24.37,-24.92 c 43.63,99.76 74.26,178.55 104.29,278.87 l 6.8,21.52 8.48,-19.26 c -28.91,-96.91 -56.1,-173.44 -95.2,-256.21"
         style="fill:#0f0f0f;fill-opacity:1;fill-rule:evenodd;stroke:none"
         id="path114"
         inkscape:connector-curvature="0" /><path
         d="m 2813.59,872.852 c -20.39,0 -32.89,6.839 -52.14,27.226 20.97,-12.457 30.62,-14.726 47.03,-14.726 43.67,0 90.15,39.687 133.79,115.038 l 11.87,-18.12 c -50.43,-76.532 -92.38,-109.418 -140.55,-109.418"
         style="fill:#0f0f0f;fill-opacity:1;fill-rule:evenodd;stroke:none"
         id="path116"
         inkscape:connector-curvature="0" /><path
         d="m 2973.44,1329.73 c 0,-27.23 -5.67,-50.47 -17.58,-81.64 -9.65,-26.06 -26.06,-55.55 -71.41,-140 -27.22,-52.7 -37.97,-77.07 -49.33,-116.762 -1.68,-7.93 -5.67,-13.598 -8.48,-13.598 -3.98,0 -6.8,3.95 -6.8,9.649 0,5.672 2.82,17.541 8.48,35.711 9.65,27.18 20.98,51.56 56.13,117.3 35.71,66.91 51.02,95.78 61.76,121.33 10.78,28.9 19.3,64.02 19.3,87.26 0,12.47 -1.72,21.53 -4.53,42.5 9.61,-24.92 12.46,-38.51 12.46,-61.75"
         style="fill:#0f0f0f;fill-opacity:1;fill-rule:evenodd;stroke:none"
         id="path118"
         inkscape:connector-curvature="0" /><path
         d="m 3371.88,1072.38 c 0,-102.028 -107.66,-199.528 -222.74,-199.528 -35.7,0 -55,6.839 -80.47,31.757 30.04,-14.73 45.9,-19.257 74.81,-19.257 116.75,0 216.52,94.648 216.52,203.478 0,21.52 -1.72,33.98 -8.52,60.08 15.32,-31.76 20.4,-49.3 20.4,-76.53"
         style="fill:#0f0f0f;fill-opacity:1;fill-rule:evenodd;stroke:none"
         id="path120"
         inkscape:connector-curvature="0" /><path
         d="m 3148.01,1014.57 c 0,-19.261 -10.78,-32.89 -25.51,-32.89 -7.38,0 -11.91,1.718 -16.99,9.648 26.05,1.723 37.38,13.592 37.38,43.082 0,1.14 0,3.99 -1.68,7.93 5.67,-11.91 6.8,-17.57 6.8,-27.77"
         style="fill:#0f0f0f;fill-opacity:1;fill-rule:evenodd;stroke:none"
         id="path122"
         inkscape:connector-curvature="0" /><path
         d="m 3290.86,1402.27 c -27.23,0 -43.67,-15.86 -48.75,-45.9 -4.53,6.79 -4.53,11.33 -4.53,16.4 0,23.83 26.05,43.09 57.22,43.09 5.67,0 11.33,-1.68 19.85,-2.81 l -8.52,-13.64 c -6.79,1.14 -9.61,2.86 -15.27,2.86"
         style="fill:#0f0f0f;fill-opacity:1;fill-rule:evenodd;stroke:none"
         id="path124"
         inkscape:connector-curvature="0" /><path
         d="m 3450.12,1369.38 c 0,-31.18 -23.24,-56.1 -52.15,-56.1 -16.45,0 -26.64,6.8 -41.37,23.24 16.45,-9.64 23.79,-12.46 33.44,-12.46 30.04,0 54.41,27.78 54.41,60.63 0,5.11 -1.13,13.59 -2.85,22.65 6.8,-18.67 8.52,-27.18 8.52,-37.96"
         style="fill:#0f0f0f;fill-opacity:1;fill-rule:evenodd;stroke:none"
         id="path126"
         inkscape:connector-curvature="0" /><path
         d="m 3116.29,1669.22 c -12.5,-10.74 -20.43,-15.31 -30.08,-14.73 -15.27,-0.58 -26.05,11.92 -26.05,29.46 0,42.53 38.55,90.15 70.86,90.15 22.65,0 39.1,-19.3 39.1,-47.62 0,-53.28 -33.44,-102.61 -100.32,-149.06 l -14.76,24.38 c 31.17,19.25 47.62,37.38 61.25,67.42"
         style="fill:#0f0f0f;fill-opacity:1;fill-rule:evenodd;stroke:none"
         id="path128"
         inkscape:connector-curvature="0" /><path
         d="m 3196.17,1690.78 c 0,-46.48 -45.9,-108.28 -104.29,-140.58 l -8.48,10.78 c 62.93,32.85 103.16,88.4 103.16,146.21 0,5.66 -1.72,10.78 -2.85,20.43 9.65,-16.45 12.46,-24.38 12.46,-36.84"
         style="fill:#0f0f0f;fill-opacity:1;fill-rule:evenodd;stroke:none"
         id="path130"
         inkscape:connector-curvature="0" /><path
         d="m 1312.15,1324.61 c 50.43,0 62.93,1.13 84.45,9.65 -16.44,10.78 -20.43,15.86 -20.43,27.19 0,13.63 6.84,20.43 23.24,23.24 7.93,1.13 12.5,5.11 12.5,10.78 0,20.39 -43.67,41.95 -86.17,41.95 -84.45,0 -166.64,-51.6 -226.72,-142.85 -53.28,-81.05 -97.5,-206.33 -97.5,-274.34 0,-38.55 15.9,-60.07 41.37,-60.07 27.77,0 53.28,21.52 87.31,73.67 42.5,65.19 92.96,162.11 142.26,272.65 l 7.93,18.13 c 13.59,0 27.77,0 31.76,0 z m 103.71,-297.58 c -58.95,-86.132 -92.97,-116.171 -130.94,-116.171 -41.37,0 -75.39,43.629 -75.39,94.061 0,39.69 13.63,82.19 61.8,175.7 21.52,42.54 22.65,48.21 22.65,53.29 0,5.7 -2.22,8.51 -13.59,10.78 l -6.8,-13.6 c -53.28,-118.47 -80.47,-171.75 -110.5,-215.39 -47.62,-69.141 -92.43,-103.161 -140.59,-103.161 -64.609,0 -108.238,60.082 -108.238,148.511 0,223.87 183.628,412.07 401.828,412.07 87.31,0 153.05,-42.53 153.05,-99.76 0,-28.32 -22.11,-54.41 -46.48,-54.41 -1.14,0 -2.82,0 -6.8,1.67 l -8.52,-15.27 c -43.63,-87.85 -82.73,-169.49 -108.79,-229.57 -22.1,-50.43 -30.03,-75.94 -30.03,-92.382 0,-16.449 11.87,-31.757 27.18,-31.168 23.25,-0.589 51.6,31.168 100.9,111.64 l 19.26,-36.84"
         style="fill:#0f0f0f;fill-opacity:1;fill-rule:evenodd;stroke:none"
         id="path132"
         inkscape:connector-curvature="0" /><path
         d="m 2252.46,1324.61 c 50.43,0 62.93,1.13 85,9.65 -16.41,10.78 -20.94,15.86 -20.94,27.19 0,13.63 7.35,20.43 23.25,23.24 8.47,1.13 12.46,5.11 12.46,10.78 0,20.39 -43.64,41.95 -86.18,41.95 -84.45,0 -166.64,-51.6 -226.71,-142.85 -53.29,-81.05 -96.92,-206.33 -96.92,-274.34 0,-38.55 14.73,-60.07 40.82,-60.07 27.19,0 53.28,21.52 87.27,73.67 42.54,65.19 93.51,162.11 142.26,273.2 l 8.52,17.58 c 13.59,0 27.23,0 31.17,0 z m 103.71,-297.58 c -58.36,-86.132 -92.38,-116.171 -130.9,-116.171 -40.82,0 -74.84,43.629 -74.84,94.061 0,39.69 13.59,81.64 61.21,175.7 22.11,42.54 23.24,48.21 23.24,53.29 0,5.7 -2.81,8.51 -13.59,10.78 l -6.8,-13.6 c -53.28,-118.47 -80.51,-171.75 -111.09,-214.8 -48.17,-69.731 -92.97,-103.751 -140.59,-103.751 -64.02,0 -108.24,60.082 -108.24,148.511 0,223.87 183.09,412.07 402.42,412.07 87.31,0 152.46,-42.53 152.46,-99.76 0,-28.32 -21.52,-54.41 -46.44,-54.41 -1.13,0 -2.31,0 -6.84,1.67 l -7.93,-15.27 c -43.63,-87.85 -83.32,-169.49 -109.37,-229.57 -21.57,-50.43 -30.04,-75.94 -30.04,-92.382 0,-16.449 12.46,-31.757 27.19,-31.757 23.24,0.589 52.14,31.757 101.44,112.229 l 18.71,-36.84"
         style="fill:#0f0f0f;fill-opacity:1;fill-rule:evenodd;stroke:none"
         id="path134"
         inkscape:connector-curvature="0" /><path
         d="m 1466.33,994.18 c 17.54,44.77 42.5,104.84 62.89,152.46 l 40.82,98.05 c 35.7,85.04 42.5,105.43 42.5,121.87 0,27.19 -19.26,42.5 -54.96,42.5 -3.99,0 -10.78,0 -17.58,0 l 16.45,37.97 h 96.91 c 47.62,0 73.67,10.78 86.13,34.02 l 9.65,-7.93 c -12.46,-39.68 -23.24,-66.91 -46.48,-121.28 -31.72,-74.85 -52.15,-123.01 -95.78,-218.79 -17.58,-37.97 -27.19,-58.4 -34.03,-75.98 -5.66,-10.74 -5.66,-12.46 -5.66,-16.45 0,-3.94 3.98,-8.47 9.65,-8.47 2.85,0 6.79,1.68 10.78,1.68 l 5.66,14.76 c 16.45,35.71 51.56,114.5 73.67,158.13 87.31,179.1 160.98,266.4 226.72,266.4 21.56,0 36.84,-17.57 36.84,-42.53 0,-37.97 -31.17,-74.81 -65.74,-74.81 -11.92,0 -23.25,7.93 -23.25,19.3 0,2.81 1.72,5.08 1.72,7.93 1.14,2.81 1.14,5.66 1.14,5.66 0,5.08 -3.99,7.93 -9.65,7.93 -16.45,0 -41.96,-32.89 -83.32,-102.03 -55.55,-98.63 -104.85,-214.26 -155.32,-348.011 l -5.66,-16.438 h -81.6 c -36.84,0 -45.35,-3.992 -66.33,-27.191 l -9.65,2.808 c 13.63,37.973 19.3,53.282 33.48,88.442"
         style="fill:#0f0f0f;fill-opacity:1;fill-rule:evenodd;stroke:none"
         id="path136"
         inkscape:connector-curvature="0" /><path
         d="m 2447.42,1038.95 c 38.01,92.96 61.25,146.25 104.88,244.29 43.64,94.06 53.29,115.63 70.28,153.6 26.09,60.07 42.5,102.57 56.13,138.86 10.74,34.57 16.41,54.96 16.41,73.68 0,36.83 -16.41,48.2 -78.21,48.2 l 23.25,38.51 h 79.33 c 68.05,-2.81 90.16,2.86 104.89,27.23 l 8.47,-5.66 c -45.31,-155.86 -94.06,-286.8 -167.77,-439.26 l -46.45,-96.37 -43.08,-90.12 c -28.36,-58.94 -34.03,-73.71 -34.03,-81.64 0,-8.47 3.99,-13.59 10.78,-13.59 2.82,0 3.99,0 6.8,1.13 35.7,84.46 83.91,183.64 120.74,249.38 75.36,134.92 124.11,183.67 185.9,183.67 47.62,0 80.47,-36.88 80.47,-91.25 0,-44.81 -23.2,-111.68 -62.89,-187.62 l -36.84,-69.72 c -38,-69.73 -53.28,-108.83 -53.28,-138.872 0,-17.578 8.48,-28.91 20.39,-28.91 19.26,0 56.14,38.563 95.79,99.772 l 19.29,-31.76 c -58.94,-88.398 -88.98,-113.91 -129.8,-113.91 -52.15,0 -87.31,45.898 -87.31,112.78 0,50.47 22.7,114.49 71.99,198.94 l 46.49,77.66 c 23.24,37.97 33.98,68.01 33.98,90.12 0,20.43 -10.74,34.02 -24.33,34.02 -31.21,0 -94.1,-76.52 -153.05,-188.2 -43.63,-83.29 -98.63,-209.69 -130.35,-303.789 h -87.31 c -30.03,0 -40.82,-2.851 -62.34,-27.191 h -9.65 c 13.6,43.629 24.38,74.8 50.43,136.02"
         style="fill:#0f0f0f;fill-opacity:1;fill-rule:evenodd;stroke:none"
         id="path138"
         inkscape:connector-curvature="0" /><path
         d="m 3072.62,1097.89 c 28.36,0 51.6,-22.11 51.6,-50.43 0,-17.58 -11.92,-32.89 -30.08,-35.7 l -10.74,-1.14 c -6.8,0 -12.46,-7.96 -12.46,-16.44 0,-21.559 30.04,-40.821 64.61,-40.821 58.94,0 111.09,55.551 111.09,118.481 0,19.25 -3.98,37.96 -15.31,61.21 -5.12,10.74 -7.93,15.31 -27.23,42.5 -9.61,11.91 -19.26,24.37 -28.9,37.97 -30.59,40.82 -44.18,75.39 -44.18,109.37 0,90.16 81.6,163.83 180.78,163.83 68.59,0 119.06,-35.7 119.06,-81.6 0,-30.04 -26.09,-52.15 -60.12,-52.15 -24.33,0 -42.5,13.59 -42.5,33.98 0,11.33 5.67,20.39 15.31,26.1 9.65,5.66 10.79,7.93 10.79,12.46 0,10.78 -17.58,18.71 -46.49,18.71 -54.41,0 -99.76,-32.31 -99.76,-73.13 0,-20.97 12.46,-41.36 57.26,-98.63 57.81,-71.41 75.35,-113.36 75.35,-167.77 0,-103.71 -92.93,-191.018 -201.21,-191.018 -77.61,0 -133.75,47.617 -133.75,113.358 0,38.01 31.17,70.86 66.88,70.86"
         style="fill:#0f0f0f;fill-opacity:1;fill-rule:evenodd;stroke:none"
         id="path140"
         inkscape:connector-curvature="0" /><path
         d="m 2029.14,1779.77 v -14.73 c 0,-6.84 0,-13.05 1.13,-17.58 1.14,-3.98 2.27,-7.38 4.53,-9.06 2.27,-2.31 4.54,-3.44 7.93,-3.44 5.12,0 9.11,2.27 11.33,6.84 1.72,4.53 2.85,11.32 2.85,20.93 v 24.97 c 0,7.34 0,13 -1.13,16.99 -1.13,3.98 -2.26,6.79 -4.53,9.06 -1.72,2.27 -4.53,3.4 -8.52,3.4 -3.94,0 -7.34,-2.27 -9.61,-5.67 -1.13,-1.68 -2.26,-3.94 -2.85,-6.79 0,-2.27 -0.54,-5.67 -1.13,-10.2 0,-5.11 0,-9.65 0,-14.72 z m 13.05,40.78 c 3.4,0 6.79,-0.55 10.19,-2.27 3.99,-0.55 7.39,-2.26 10.2,-3.94 3.4,-1.72 6.25,-3.99 8.51,-6.25 4.53,-4.54 7.39,-9.61 9.61,-14.73 2.85,-5.66 3.99,-11.33 3.99,-16.99 0,-7.93 -2.27,-15.32 -5.67,-22.11 -3.98,-6.8 -9.06,-11.92 -15.31,-15.86 -6.25,-3.99 -13.59,-6.25 -20.98,-6.25 -5.66,0 -10.74,1.13 -15.85,3.94 -5.08,2.31 -9.65,5.12 -13.6,9.11 -3.4,3.94 -6.8,9.06 -9.06,14.14 -1.72,5.11 -2.85,10.78 -2.85,16.44 0,5.67 1.13,11.33 2.85,16.99 2.26,5.12 5.66,9.65 9.06,14.18 3.95,3.99 8.52,7.39 13.6,9.65 4.53,2.81 9.64,3.95 15.31,3.95"
         style="fill:#0f0f0f;fill-opacity:1;fill-rule:evenodd;stroke:none"
         id="path168"
         inkscape:connector-curvature="0" /><path
         d="m 2144.77,1778.63 h 5.66 c 6.25,0 10.19,1.14 12.46,3.4 0.59,1.13 1.72,2.27 2.31,3.4 0.54,2.27 1.13,4.53 1.68,6.8 0,2.26 0,4.53 0,6.79 -0.55,3.99 -1.14,7.39 -1.68,9.07 -0.59,2.26 -1.18,3.39 -2.86,5.11 -2.85,2.82 -7.93,3.95 -14.72,3.95 -7.93,0 -14.77,-1.13 -20.98,-3.95 -1.13,-1.13 -2.85,-1.72 -3.98,-2.85 -1.14,-1.13 -2.27,-2.26 -3.4,-3.94 4.53,1.68 7.93,2.81 12.46,2.81 3.98,0 7.38,-1.13 9.65,-3.4 2.26,-2.27 3.98,-4.53 3.98,-7.93 0,-3.98 -1.72,-6.8 -4.57,-9.06 -2.81,-2.27 -6.8,-3.4 -11.33,-3.4 -5.07,0 -9.06,1.13 -11.87,3.95 -3.44,2.26 -4.53,5.66 -4.53,9.64 0,2.86 0.54,5.67 2.26,8.52 2.27,2.81 4.53,5.08 7.35,6.8 7.38,3.39 16.44,6.21 28.36,6.21 6.21,0 11.87,-0.55 17.57,-2.27 5.08,-1.13 9.61,-2.26 13.6,-4.53 3.4,-1.68 6.21,-3.95 8.47,-6.21 2.31,-2.85 3.4,-5.66 3.4,-8.52 0,-5.11 -2.22,-9.06 -7.34,-12.46 -2.85,-2.26 -7.93,-4.53 -14.73,-6.25 -2.85,-1.13 -6.79,-1.68 -11.37,-2.26 7.39,-1.14 13.64,-2.27 17.58,-3.95 4.53,-1.13 8.52,-2.85 10.78,-5.12 2.86,-1.71 4.54,-3.94 6.22,-6.25 1.17,-2.26 1.71,-4.53 1.71,-7.34 0,-3.4 -1.13,-6.8 -3.39,-9.65 -1.68,-2.85 -5.12,-5.12 -9.07,-6.79 -3.98,-2.27 -9.06,-3.99 -14.18,-5.12 -5.66,-0.55 -11.87,-1.13 -18.71,-1.13 -3.94,0 -7.34,0 -11.33,0.58 -3.39,0.55 -6.79,1.13 -9.64,2.27 -3.95,0.54 -6.21,1.68 -7.93,2.85 -3.95,2.22 -6.21,4.49 -8.52,7.34 -1.68,3.4 -2.81,6.25 -2.81,9.65 0,3.95 1.72,7.34 4.53,9.65 2.85,2.81 6.25,3.94 10.78,3.94 5.66,0 9.65,-1.13 12.46,-3.94 2.85,-2.31 4.53,-5.12 4.53,-9.1 0,-2.27 -0.54,-4.53 -1.68,-6.21 -1.17,-2.27 -2.85,-3.4 -5.11,-4.53 -1.68,-1.18 -3.99,-1.72 -6.8,-1.72 -3.99,0 -7.38,1.13 -10.2,2.26 h -0.58 c 2.26,-3.4 5.66,-5.66 11.33,-7.93 4.57,-1.72 10.78,-2.85 17.57,-2.85 7.39,0 13.05,1.72 15.86,4.53 1.18,1.72 2.31,3.4 2.86,4.53 1.71,4.57 2.26,9.65 1.71,14.18 0,4.53 -0.58,7.39 -1.17,9.65 -1.09,2.27 -1.68,3.99 -2.81,5.12 -2.85,2.26 -7.38,3.94 -13.59,3.94 h -6.25 v 1.72"
         style="fill:#0f0f0f;fill-opacity:1;fill-rule:evenodd;stroke:none"
         id="path170"
         inkscape:connector-curvature="0" /><path
         d="m 1408.52,1802.42 1.13,0.59 c 1.68,1.13 3.94,1.68 5.08,1.68 1.72,0.58 3.39,1.13 5.11,1.13 3.95,0 6.8,-1.13 9.07,-3.4 2.26,-1.72 3.94,-4.53 3.94,-7.93 0,-2.26 -1.09,-4.53 -2.26,-6.25 -1.14,-2.26 -2.82,-3.4 -5.08,-4.53 -2.27,-1.13 -5.12,-1.68 -7.39,-1.68 -4.53,0 -7.92,1.13 -10.78,3.95 -2.81,2.26 -4.53,5.66 -4.53,9.64 0,3.4 1.14,6.8 3.4,10.2 1.72,2.85 4.57,5.66 8.52,7.93 2.26,1.13 4.53,2.27 7.38,3.4 2.81,0.58 5.66,1.13 9.06,2.26 3.4,0.59 6.8,0.59 10.78,0.59 3.4,0 7.35,0 10.75,-0.59 4.53,-1.13 8.51,-2.26 11.91,-2.81 2.85,-1.13 5.66,-2.26 7.93,-3.4 2.85,-1.72 5.12,-3.4 6.8,-5.11 1.71,-1.68 2.85,-3.95 3.98,-6.21 0.55,-2.27 1.13,-4.58 1.13,-6.84 0,-4.53 -1.72,-8.48 -5.11,-11.88 -1.68,-1.13 -3.4,-2.85 -5.08,-3.39 -1.72,-1.14 -3.99,-2.31 -7.38,-3.4 -2.86,-0.59 -6.26,-1.72 -10.2,-2.85 -5.66,-1.14 -8.52,-1.68 -9.65,-2.27 -5.66,-1.72 -10.74,-3.4 -14.73,-4.53 -3.94,-1.68 -7.38,-3.4 -9.64,-5.12 -2.82,-1.68 -5.67,-3.94 -7.93,-6.21 -3.4,-3.4 -6.21,-6.8 -7.39,-11.37 2.86,2.86 5.12,5.71 7.39,7.39 2.85,1.71 5.66,3.39 8.51,5.11 6.21,2.82 13.05,4.53 19.26,4.53 3.4,0 6.8,-0.58 10.2,-1.71 3.39,-0.55 7.38,-2.27 11.91,-4.54 1.72,-0.54 3.4,-1.68 5.12,-2.26 1.13,-0.55 2.81,-0.55 3.39,-1.13 1.14,0 2.27,-0.55 3.4,-0.55 3.4,0 5.67,1.13 7.35,3.4 1.17,2.26 2.26,5.08 2.26,9.61 h 2.31 c -0.59,-4.53 -1.14,-8.48 -1.72,-11.33 -1.13,-2.81 -2.27,-5.66 -4.53,-8.52 -1.72,-2.22 -3.99,-4.53 -6.25,-6.21 -2.82,-1.72 -5.67,-3.4 -8.48,-3.98 -3.44,-1.13 -6.25,-1.68 -9.65,-1.68 -3.98,0 -7.93,0.55 -11.33,1.68 -3.98,1.13 -7.93,3.4 -13.63,6.25 -3.4,2.26 -6.21,3.94 -8.47,4.53 -2.27,1.13 -4.54,1.13 -6.26,1.13 -2.81,0 -4.53,0 -6.79,-1.13 -1.68,-1.13 -2.81,-2.81 -3.99,-5.12 -1.13,-1.68 -2.22,-4.53 -2.22,-7.34 h -2.31 c 0,2.81 0.59,5.66 0.59,7.93 0.55,1.72 1.13,3.94 2.26,5.66 0.55,2.27 1.68,3.99 3.4,6.25 2.27,3.4 5.67,6.8 9.06,9.61 3.99,2.27 9.07,5.12 16.45,8.52 4.53,1.72 8.52,3.98 10.78,5.11 2.27,1.68 4.53,3.4 5.67,5.08 1.68,1.72 3.39,3.99 3.94,5.67 1.13,2.26 1.13,4.53 1.13,7.93 0,7.38 -1.68,13.04 -5.66,17.03 -3.4,3.94 -8.48,6.21 -15.27,6.21 -3.99,0 -7.39,-0.55 -11.37,-1.68 -3.4,-1.13 -6.8,-2.85 -9.06,-4.53 -1.68,-1.72 -2.82,-2.85 -3.95,-3.99 -0.58,-0.54 -1.72,-2.26 -2.26,-4.53"
         style="fill:#0f0f0f;fill-opacity:1;fill-rule:evenodd;stroke:none"
         id="path172"
         inkscape:connector-curvature="0" /><path
         d="m 1541.72,1779.77 v -14.73 c 0,-7.38 0.55,-13.05 1.68,-17.58 0.55,-4.57 2.26,-7.97 3.94,-9.65 2.31,-2.26 5.12,-2.85 8.52,-2.85 5.12,0 8.52,2.27 10.78,6.25 2.27,4.53 3.4,11.91 3.4,21.52 v 24.38 c 0,7.38 -0.59,13.05 -1.13,17.03 -1.14,3.95 -2.86,7.34 -4.53,9.61 -2.27,1.72 -5.12,2.85 -8.52,2.85 -4.53,0 -7.93,-1.72 -10.2,-5.66 -1.13,-1.72 -1.71,-3.99 -2.26,-6.25 -0.59,-2.27 -1.13,-5.67 -1.13,-10.78 -0.55,-4.53 -0.55,-9.61 -0.55,-14.14 z m 13.01,40.23 c 3.98,0 7.38,-0.59 10.78,-1.72 3.4,-1.13 6.79,-2.26 10.19,-3.94 2.85,-2.27 5.67,-4.54 8.52,-6.8 4.53,-4.53 7.93,-9.06 10.19,-14.77 2.27,-5.07 3.4,-10.74 3.4,-16.99 0,-7.93 -1.72,-15.31 -5.66,-22.11 -3.4,-6.79 -9.06,-11.87 -15.86,-15.86 -6.25,-3.98 -13.05,-5.66 -20.98,-5.66 -5.11,0 -10.19,1.13 -15.31,3.4 -5.12,2.26 -9.65,5.07 -13.59,9.65 -3.99,3.94 -6.8,8.47 -9.11,13.59 -2.26,5.66 -3.39,11.33 -3.39,16.99 0,5.67 1.13,10.78 3.39,16.45 2.31,5.07 5.12,10.19 9.11,14.18 3.94,3.94 8.47,7.34 13,9.61 5.12,2.26 10.24,3.98 15.32,3.98"
         style="fill:#0f0f0f;fill-opacity:1;fill-rule:evenodd;stroke:none"
         id="path174"
         inkscape:connector-curvature="0" /><path
         d="m 1929.96,1886.88 c -10.19,0 -18.12,-7.93 -18.12,-18.13 0,-3.4 0.54,-6.25 2.22,-8.52 l -58.36,-28.9 -47.03,62.34 c 5.67,2.85 9.06,9.06 9.06,15.86 0,10.24 -7.93,18.17 -18.12,18.17 -10.23,0 -18.71,-7.93 -18.71,-18.17 0,-6.8 3.94,-13.01 9.61,-16.41 l -46.49,-61.79 -58.36,28.9 c 1.68,2.27 2.27,5.12 2.27,8.52 0,10.2 -8.52,18.13 -18.13,18.13 -10.19,0 -18.71,-7.93 -18.71,-18.13 0,-10.2 8.52,-18.71 18.71,-18.71 1.14,0 2.27,0.55 3.4,0.55 l 11.33,-58.95 c 4.53,1.72 9.06,2.27 13.05,2.27 7.93,0 15.27,-1.68 18.12,-1.68 4.53,1.13 10.2,4.53 16.45,8.47 6.8,3.44 14.73,7.39 24.37,8.52 1.14,0 2.27,0 3.4,0 7.93,0 15.31,-2.27 21.53,-4.53 6.79,-1.68 13.04,-3.4 18.16,-3.4 5.08,0 10.74,1.72 17.54,3.4 6.8,2.26 14.18,4.53 22.69,4.53 1.14,0 2.27,0 3.4,0 9.61,-1.13 16.99,-5.08 23.79,-8.52 6.8,-3.94 12.46,-7.34 16.45,-8.47 h 0.54 c 2.31,0 10.24,1.68 17.58,1.68 4.53,0 9.06,-0.55 13.63,-2.27 l 11.33,58.95 c 1.14,0 2.27,-0.55 3.4,-0.55 10.2,0 18.71,8.51 18.71,18.71 0,10.2 -8.51,18.13 -18.71,18.13 z m -130.35,-216.53 c -48.75,0 -87.89,-9.65 -87.89,-22.11 0,-11.87 39.14,-21.52 87.89,-21.52 48.75,0 87.85,9.65 87.85,21.52 0,12.46 -39.1,22.11 -87.85,22.11 z m 109.92,105.43 c -1.68,1.13 -3.94,1.68 -7.93,1.68 -5.08,0 -11.33,-1.68 -17.58,-1.68 -1.13,0 -2.81,0 -4.53,0.59 -7.93,2.26 -14.14,6.21 -20.39,9.61 -6.25,3.4 -11.91,6.25 -17.58,6.79 -0.54,0 -1.13,0 -1.68,0 -4.53,0 -10.78,-1.68 -17.57,-3.39 -6.8,-2.27 -14.18,-4.54 -22.66,-4.54 -8.52,0 -16.45,2.27 -22.7,4.54 -6.79,1.71 -13.04,3.39 -16.99,3.39 -0.58,0 -1.13,0 -1.72,0 -5.66,-0.54 -11.87,-3.39 -18.12,-6.79 -6.25,-3.4 -12.46,-7.35 -20.39,-9.61 -1.72,-0.59 -2.85,-0.59 -3.99,-0.59 -6.25,0 -12.46,1.68 -18.12,1.68 -3.44,0 -6.25,-0.55 -7.93,-1.68 -0.59,-0.55 -1.13,-1.13 -1.72,-1.68 l 3.4,-18.71 c 3.98,1.68 8.51,2.27 11.91,2.27 7.93,0 14.73,-1.72 16.99,-1.72 h 0.55 c 3.44,1.13 9.1,3.98 15.31,7.38 6.25,3.95 13.64,7.93 22.7,8.52 1.13,0 2.26,0 3.4,0 7.34,0 14.18,-2.31 20.39,-3.99 6.25,-2.26 11.91,-3.98 17.03,-3.4 4.53,-0.58 10.19,1.14 16.41,3.4 6.25,1.68 13.04,3.99 21.56,3.99 1.13,0 1.68,0 2.81,0 9.06,-0.59 16.99,-4.57 23.24,-8.52 6.25,-3.4 11.33,-6.25 15.32,-7.38 2.26,0 9.64,1.72 16.99,1.72 3.98,0 7.93,-0.59 12.46,-2.27 l 3.44,18.13 c -0.59,1.13 -1.18,1.71 -2.31,2.26 z m -6.21,-36.29 c -1.72,1.13 -3.98,1.72 -7.38,1.72 -5.08,0 -10.74,-1.72 -16.99,-1.72 -1.14,0 -2.27,0 -3.99,0.59 -7.34,1.72 -13.59,5.66 -19.26,9.06 -6.25,3.4 -11.32,5.66 -16.99,6.25 0,0 -0.59,0 -1.13,0 -3.99,0 -10.24,-1.13 -16.45,-3.4 -6.25,-1.72 -13.59,-3.98 -21.52,-3.98 -8.52,0 -15.31,2.26 -21.56,3.98 -6.21,2.27 -11.92,3.4 -15.86,3.4 -0.59,0 -1.14,0 -1.72,0 -5.08,-0.59 -10.74,-2.85 -16.45,-6.25 -6.21,-3.4 -11.87,-7.34 -19.8,-9.06 -1.13,-0.59 -2.85,-0.59 -3.99,-0.59 -5.66,0 -11.87,1.72 -16.99,1.72 -2.85,0 -5.66,-0.59 -6.79,-1.72 -0.59,-0.54 -1.14,-0.54 -1.72,-1.68 l 3.39,-18.71 c 3.99,1.68 7.93,1.68 11.33,1.68 7.39,0 13.64,-1.09 15.9,-1.09 3.4,0.54 8.48,3.4 14.14,6.79 6.25,3.4 13.05,7.35 22.11,7.93 0.59,0 1.72,0 2.85,0 7.39,0 13.6,-2.26 19.85,-3.98 5.66,-1.68 10.74,-3.4 15.31,-3.4 3.94,0 9.61,1.72 15.27,3.4 5.67,1.72 12.46,3.98 20.43,3.98 0.55,0 1.68,0 2.81,0 8.52,-0.58 15.86,-4.53 21.57,-7.93 5.66,-3.39 10.74,-6.25 14.14,-6.79 2.26,0 9.06,1.09 15.9,1.09 3.39,0 7.34,0 11.32,-1.68 l 3.99,18.71 c -0.59,0.59 -1.17,1.14 -1.72,1.68 z m -7.38,-36.25 c -1.14,0.55 -2.82,1.14 -6.21,1.14 -4.53,0 -10.24,-1.14 -15.9,-1.14 -1.13,0 -2.27,0 -3.95,0.55 -6.79,1.72 -12.5,5.12 -18.16,8.51 -5.67,2.86 -10.74,5.08 -15.27,5.67 -0.59,0 -1.14,0 -1.14,0 -3.98,0 -9.65,-1.13 -15.31,-3.4 -6.25,-1.72 -13.05,-3.98 -20.39,-3.98 -7.97,0 -14.77,2.26 -20.43,3.98 -6.21,2.27 -11.33,3.4 -14.73,3.4 -0.58,0 -1.13,0 -1.72,0 -4.53,-0.59 -9.61,-2.81 -14.72,-5.67 -5.67,-3.39 -11.33,-6.79 -18.71,-8.51 -1.68,-0.55 -2.82,-0.55 -3.95,-0.55 -5.66,0 -10.78,1.14 -15.9,1.14 -2.81,0 -5.07,-0.59 -6.21,-1.14 -0.58,-0.58 -1.13,-1.13 -1.72,-1.72 l 4.53,-23.79 c 6.25,3.4 12.5,3.99 17.58,3.99 3.4,0 6.25,-0.59 7.93,-0.59 0.59,0 1.14,0.59 1.14,0.59 3.39,0.55 7.92,2.81 13.63,5.08 5.08,2.85 11.33,5.11 19.26,6.25 1.13,0 2.26,0 3.39,0 6.25,0 11.33,-1.14 16.45,-2.27 5.08,-1.72 10.19,-2.26 14.18,-2.26 3.94,0 8.48,0.54 13.59,2.26 5.08,1.13 10.75,2.27 17,2.27 1.13,0 2.26,0 3.39,0 7.93,-1.14 14.18,-3.4 19.85,-6.25 5.11,-2.27 9.65,-4.53 13.04,-5.08 0.55,0 0.55,-0.59 1.14,-0.59 1.68,0 5.08,0.59 7.93,0.59 5.07,0 11.33,-0.59 17.57,-3.99 l 4.54,23.79 c 0,0.59 -0.59,1.14 -1.72,1.72"
         style="fill:#0f0f0f;fill-opacity:1;fill-rule:evenodd;stroke:none"
         id="path176"
         inkscape:connector-curvature="0" /></g></g></svg>