<?xml version="1.0" encoding="UTF-8" standalone="no"?>
<svg
   xmlns:dc="http://purl.org/dc/elements/1.1/"
   xmlns:cc="http://creativecommons.org/ns#"
   xmlns:rdf="http://www.w3.org/1999/02/22-rdf-syntax-ns#"
   xmlns:svg="http://www.w3.org/2000/svg"
   xmlns="http://www.w3.org/2000/svg"
   id="svg660"
   version="1.1"
   viewBox="0 0 23.577778 24.577778"
   height="24.577778mm"
   width="23.577778mm">
  <defs
     id="defs654" />
  <metadata
     id="metadata657">
    <rdf:RDF>
      <cc:Work
         rdf:about="">
        <dc:format>image/svg+xml</dc:format>
        <dc:type
           rdf:resource="http://purl.org/dc/dcmitype/StillImage" />
        <dc:title></dc:title>
      </cc:Work>
    </rdf:RDF>
  </metadata>
  <g
     transform="translate(-92.788493,-94.211112)"
     id="layer1">
    <path
       id="path18"
       style="display:inline;fill:#4c60aa;fill-opacity:1;fill-rule:nonzero;stroke:none;stroke-width:0.03527778"
       d="m 116.36627,106.5 c 0,6.23358 -5.05389,11.28889 -11.28889,11.28889 -6.23464,0 -11.288887,-5.05531 -11.288887,-11.28889 0,-6.23358 5.054247,-11.288888 11.288887,-11.288888 6.235,0 11.28889,5.055308 11.28889,11.288888" />
    <path
       id="path20"
       style="display:inline;fill:#ffffff;fill-opacity:1;fill-rule:nonzero;stroke:none;stroke-width:0.03527778"
       d="m 102.47035,105.15592 h 1.54376 v -1.43228 c 0,0 -0.0649,-0.93486 0.64523,-1.64395 0.70979,-0.70908 1.66546,-0.64205 3.02577,-0.52563 v 1.59808 h -1.00577 c 0,0 -0.42262,-0.007 -0.62124,0.21872 -0.19861,0.22931 -0.17709,0.55386 -0.17709,0.635 v 1.15006 h 1.74519 l -0.22437,1.78152 h -1.52999 v 4.58259 h -1.85103 v -4.59317 h -1.55046 v -1.77094" />
  </g>
</svg>
