<?xml version="1.0" encoding="UTF-8" standalone="no"?>
<!-- Created with Inkscape (http://www.inkscape.org/) -->

<svg
   xmlns:dc="http://purl.org/dc/elements/1.1/"
   xmlns:cc="http://creativecommons.org/ns#"
   xmlns:rdf="http://www.w3.org/1999/02/22-rdf-syntax-ns#"
   xmlns:svg="http://www.w3.org/2000/svg"
   xmlns="http://www.w3.org/2000/svg"
   xmlns:sodipodi="http://sodipodi.sourceforge.net/DTD/sodipodi-0.dtd"
   xmlns:inkscape="http://www.inkscape.org/namespaces/inkscape"
   version="1.1"
   id="svg2"
   xml:space="preserve"
   width="115.36079"
   height="116.64426"
   viewBox="0 0 115.36079 116.64426"
   sodipodi:docname="edit-logo-crown.svg"
   inkscape:version="0.92.2 (5c3e80d, 2017-08-06)"><metadata
     id="metadata8"><rdf:RDF><cc:Work
         rdf:about=""><dc:format>image/svg+xml</dc:format><dc:type
           rdf:resource="http://purl.org/dc/dcmitype/StillImage" /><dc:title></dc:title></cc:Work></rdf:RDF></metadata><defs
     id="defs6"><clipPath
       clipPathUnits="userSpaceOnUse"
       id="clipPath20"><path
         d="M 0,1.69922 H 1437.97 V 1439.6692 H 0 Z"
         id="path18"
         inkscape:connector-curvature="0"
         style="clip-rule:evenodd" /></clipPath></defs><sodipodi:namedview
     pagecolor="#ffffff"
     bordercolor="#666666"
     borderopacity="1"
     objecttolerance="10"
     gridtolerance="10"
     guidetolerance="10"
     inkscape:pageopacity="0"
     inkscape:pageshadow="2"
     inkscape:window-width="680"
     inkscape:window-height="480"
     id="namedview4"
     showgrid="false"
     fit-margin-top="1"
     fit-margin-left="1"
     fit-margin-right="1"
     fit-margin-bottom="1"
     inkscape:zoom="1.2291667"
     inkscape:cx="57.702134"
     inkscape:cy="58.344268"
     inkscape:window-x="0"
     inkscape:window-y="51"
     inkscape:window-maximized="0"
     inkscape:current-layer="g10" /><g
     id="g10"
     inkscape:groupmode="layer"
     inkscape:label="ink_ext_XXXXXX"
     transform="matrix(1.3333333,0,0,-1.3333333,-38.297866,154.3)"><g
       id="g12"
       transform="scale(0.1)"><g
         id="g14"><g
           id="g16"
           clip-path="url(#clipPath20)"><path
             d="m 1091.38,1033.28 c -28.92,0 -51.59,-22.67 -51.59,-51.866 0,-9.637 1.42,-17.855 6.24,-24.371 L 879.391,874.574 745.059,1052.55 c 16.152,8.22 25.789,26.07 25.789,45.34 0,29.19 -22.672,51.86 -51.864,51.86 -29.187,0 -53.277,-22.67 -53.277,-51.86 0,-19.27 11.336,-37.12 27.488,-46.76 L 560.281,874.574 393.645,957.043 c 4.816,6.516 6.234,14.734 6.234,24.371 0,29.196 -24.09,51.866 -51.582,51.866 -29.188,0 -53.563,-22.67 -53.563,-51.866 0,-29.191 24.375,-53.562 53.563,-53.562 3.117,0 6.238,1.699 9.637,1.699 l 32.308,-168.34 c 13.035,4.82 26.074,6.519 37.41,6.519 22.672,0 43.641,-5.101 51.578,-5.101 13.036,3.402 29.188,13.035 47.043,24.371 19.555,9.637 42.227,20.973 69.715,24.375 3.121,0 6.52,0 9.637,0 22.672,0 43.645,-6.52 61.5,-13.039 19.555,-4.816 37.406,-9.633 51.859,-9.633 14.739,0 30.891,4.817 50.164,9.633 19.555,6.519 40.524,13.039 64.899,13.039 3.117,0 6.516,0 9.637,0 27.488,-3.402 48.742,-14.738 68.015,-24.375 19.555,-11.336 35.707,-20.969 47.043,-24.371 h 1.699 c 6.235,0 28.907,5.101 50.169,5.101 12.75,0 25.78,-1.699 38.82,-6.519 l 32.31,168.34 c 3.4,0 6.52,-1.699 9.64,-1.699 29.18,0 53.56,24.371 53.56,53.562 0,29.196 -24.38,51.866 -53.56,51.866 z M 718.984,414.613 c -139.148,0 -251.089,-27.488 -251.089,-63.195 0,-34.012 111.941,-61.5 251.089,-61.5 139.434,0 251.094,27.488 251.094,61.5 0,35.707 -111.66,63.195 -251.094,63.195 z m 314.296,301.254 c -4.82,3.117 -11.34,4.821 -22.67,4.821 -14.743,0 -32.598,-4.821 -50.169,-4.821 -3.398,0 -8.218,0 -13.035,1.418 -22.672,6.52 -40.527,17.856 -58.379,27.774 -17.855,9.636 -34.007,17.57 -50.164,19.269 -1.699,0 -3.117,0 -4.816,0 -13.035,0 -30.891,-4.816 -50.164,-9.633 -19.555,-6.519 -40.524,-13.039 -64.899,-13.039 -24.371,0 -47.043,6.52 -64.613,13.039 -19.555,4.817 -37.41,9.633 -48.746,9.633 -1.699,0 -3.117,0 -4.816,0 -16.157,-1.699 -34.008,-9.633 -51.864,-19.269 -17.855,-9.918 -35.707,-21.254 -58.379,-27.774 -4.82,-1.418 -7.937,-1.418 -11.336,-1.418 -17.57,0 -35.425,4.821 -51.578,4.821 -9.922,0 -17.855,-1.704 -22.672,-4.821 -1.703,-1.699 -3.402,-3.398 -5.101,-4.816 l 9.918,-53.563 c 11.336,4.817 24.09,6.52 34.008,6.52 22.672,0 41.941,-4.82 48.461,-4.82 h 1.699 c 9.637,3.117 25.789,11.335 43.644,20.972 17.856,11.336 38.829,22.672 64.899,24.371 3.117,0 6.519,0 9.637,0 20.972,0 40.527,-6.515 58.378,-11.336 17.856,-6.515 34.008,-11.336 48.461,-9.918 13.039,-1.418 29.192,3.403 47.047,9.918 17.852,4.821 37.125,11.336 61.496,11.336 3.118,0 4.821,0 8.219,0 25.789,-1.699 48.461,-13.035 66.317,-24.371 17.855,-9.637 32.308,-17.855 43.644,-20.972 6.516,0 27.488,4.82 48.742,4.82 11.341,0 22.671,-1.703 35.431,-6.52 l 9.91,51.864 c -1.7,3.117 -3.4,4.816 -6.51,6.515 z m -17.86,-103.722 c -4.81,3.117 -11.33,4.816 -20.971,4.816 -14.734,0 -30.89,-4.816 -48.742,-4.816 -3.117,0 -6.519,0 -11.336,1.699 -20.973,4.82 -38.828,16.156 -54.98,25.789 -17.856,9.637 -32.309,16.156 -48.746,17.855 0,0 -1.418,0 -3.118,0 -11.336,0 -29.191,-3.117 -47.043,-9.636 -17.855,-4.817 -38.828,-11.336 -61.5,-11.336 -24.371,0 -43.64,6.519 -61.496,11.336 -17.855,6.519 -34.008,9.636 -45.343,9.636 -1.7,0 -3.118,0 -4.817,0 -14.738,-1.699 -30.89,-8.218 -47.047,-17.855 -17.855,-9.633 -34.008,-20.969 -56.679,-25.789 -3.118,-1.699 -7.934,-1.699 -11.336,-1.699 -16.153,0 -34.008,4.816 -48.461,4.816 -8.219,0 -16.153,-1.699 -19.555,-4.816 -1.699,-1.7 -3.117,-1.7 -4.816,-4.817 l 9.632,-53.566 c 11.336,4.82 22.672,4.82 32.594,4.82 20.969,0 38.824,-3.117 45.344,-3.117 9.633,1.699 24.086,9.637 40.242,19.555 17.856,9.632 37.406,20.968 63.199,22.671 1.7,0 4.817,0 8.219,0 20.969,0 38.824,-6.519 56.68,-11.336 16.152,-5.101 30.605,-9.917 43.64,-9.917 11.336,0 27.493,4.816 43.645,9.917 16.437,4.817 35.707,11.336 58.383,11.336 1.699,0 4.816,0 8.215,0 24.089,-1.703 45.347,-13.039 61.5,-22.671 16.152,-9.918 30.605,-17.856 40.527,-19.555 6.516,0 25.789,3.117 45.344,3.117 9.632,0 20.968,0 32.302,-4.82 l 11.34,53.566 c -1.7,1.699 -3.12,3.117 -4.82,4.817 z M 994.449,508.418 c -3.398,1.703 -8.219,3.402 -17.851,3.402 -13.039,0 -29.192,-3.402 -45.344,-3.402 -3.402,0 -6.52,0 -11.336,1.703 -19.555,4.817 -35.711,14.453 -51.863,24.371 -16.153,7.934 -30.891,14.453 -43.645,16.153 -1.699,0 -3.398,0 -3.398,0 -11.34,0 -27.492,-3.399 -43.645,-9.633 -17.855,-5.102 -37.41,-11.336 -58.383,-11.336 -22.671,0 -41.941,6.234 -58.379,11.336 -17.57,6.234 -32.308,9.633 -41.941,9.633 -1.703,0 -3.402,0 -4.82,0 -13.035,-1.7 -27.489,-8.219 -42.227,-16.153 -16.152,-9.918 -32.308,-19.554 -53.277,-24.371 -5.102,-1.703 -8.219,-1.703 -11.336,-1.703 -16.438,0 -30.891,3.402 -45.344,3.402 -8.219,0 -14.738,-1.699 -17.855,-3.402 -1.7,-1.414 -3.403,-3.117 -4.817,-4.816 l 12.75,-68.016 c 17.856,9.637 35.711,11.336 50.164,11.336 9.918,0 17.852,-1.699 22.672,-1.699 1.699,0 3.399,1.699 3.399,1.699 9.636,1.699 22.672,8.219 38.828,14.738 14.453,7.934 32.308,14.453 54.98,17.57 3.399,0 6.516,0 9.918,0 17.571,0 32.309,-3.117 46.762,-6.234 14.734,-5.101 29.187,-6.519 40.523,-6.519 11.336,0 24.375,1.418 38.829,6.519 14.734,3.117 30.89,6.234 48.742,6.234 3.117,0 6.519,0 9.636,0 22.672,-3.117 40.528,-9.636 56.68,-17.57 14.453,-6.519 27.492,-13.039 37.125,-14.738 1.703,0 1.703,-1.699 3.402,-1.699 4.817,0 14.454,1.699 22.672,1.699 14.453,0 32.309,-1.699 50.16,-11.336 l 13.04,68.016 c 0,1.699 -1.704,3.402 -4.821,4.816"
             style="fill:#0f0f0f;fill-opacity:1;fill-rule:evenodd;stroke:none"
             id="path22"
             inkscape:connector-curvature="0" /></g></g></g></g></svg>